<?xml version="1.0" encoding="UTF-8"?>
<!--Generator: Apple Native CoreSVG 175-->
<!DOCTYPE svg
PUBLIC "-//W3C//DTD SVG 1.1//EN"
       "http://www.w3.org/Graphics/SVG/1.1/DTD/svg11.dtd">
<svg version="1.1" xmlns="http://www.w3.org/2000/svg" xmlns:xlink="http://www.w3.org/1999/xlink" width="3300" height="2200">
 <!--glyph: "", point size: 100.0, font version: "17.0d12e1", template writer version: "65.1"-->
 <g id="Notes">
  <rect height="2200" id="artboard" style="fill:white;opacity:1" width="3300" x="0" y="0"/>
  <line style="fill:none;stroke:black;opacity:1;stroke-width:0.5;" x1="263" x2="3036" y1="292" y2="292"/>
  <text style="stroke:none;fill:black;font-family:sans-serif;font-size:13;font-weight:bold;" transform="matrix(1 0 0 1 263 322)">Weight/Scale Variations</text>
  <text style="stroke:none;fill:black;font-family:sans-serif;font-size:13;text-anchor:middle;" transform="matrix(1 0 0 1 559.711 322)">Ultralight</text>
  <text style="stroke:none;fill:black;font-family:sans-serif;font-size:13;text-anchor:middle;" transform="matrix(1 0 0 1 856.422 322)">Thin</text>
  <text style="stroke:none;fill:black;font-family:sans-serif;font-size:13;text-anchor:middle;" transform="matrix(1 0 0 1 1153.13 322)">Light</text>
  <text style="stroke:none;fill:black;font-family:sans-serif;font-size:13;text-anchor:middle;" transform="matrix(1 0 0 1 1449.84 322)">Regular</text>
  <text style="stroke:none;fill:black;font-family:sans-serif;font-size:13;text-anchor:middle;" transform="matrix(1 0 0 1 1746.56 322)">Medium</text>
  <text style="stroke:none;fill:black;font-family:sans-serif;font-size:13;text-anchor:middle;" transform="matrix(1 0 0 1 2043.27 322)">Semibold</text>
  <text style="stroke:none;fill:black;font-family:sans-serif;font-size:13;text-anchor:middle;" transform="matrix(1 0 0 1 2339.98 322)">Bold</text>
  <text style="stroke:none;fill:black;font-family:sans-serif;font-size:13;text-anchor:middle;" transform="matrix(1 0 0 1 2636.69 322)">Heavy</text>
  <text style="stroke:none;fill:black;font-family:sans-serif;font-size:13;text-anchor:middle;" transform="matrix(1 0 0 1 2933.4 322)">Black</text>
  <line style="fill:none;stroke:black;opacity:1;stroke-width:0.5;" x1="263" x2="3036" y1="1903" y2="1903"/>
  <g transform="matrix(1 0 0 1 263 1933)">
   <path d="M9.24805 0.830078Q10.8691 0.830078 12.2949 0.214844Q13.7207-0.400391 14.8096-1.49414Q15.8984-2.58789 16.5186-4.01367Q17.1387-5.43945 17.1387-7.05078Q17.1387-8.66211 16.5186-10.0879Q15.8984-11.5137 14.8047-12.6074Q13.7109-13.7012 12.2852-14.3164Q10.8594-14.9316 9.23828-14.9316Q7.62695-14.9316 6.20117-14.3164Q4.77539-13.7012 3.69141-12.6074Q2.60742-11.5137 1.9873-10.0879Q1.36719-8.66211 1.36719-7.05078Q1.36719-5.43945 1.9873-4.01367Q2.60742-2.58789 3.69629-1.49414Q4.78516-0.400391 6.21094 0.214844Q7.63672 0.830078 9.24805 0.830078ZM9.24805-0.654297Q7.91992-0.654297 6.7627-1.14746Q5.60547-1.64062 4.73145-2.51953Q3.85742-3.39844 3.36426-4.56055Q2.87109-5.72266 2.87109-7.05078Q2.87109-8.37891 3.35938-9.54102Q3.84766-10.7031 4.72168-11.582Q5.5957-12.4609 6.75293-12.9541Q7.91016-13.4473 9.23828-13.4473Q10.5762-13.4473 11.7334-12.9541Q12.8906-12.4609 13.7695-11.582Q14.6484-10.7031 15.1465-9.54102Q15.6445-8.37891 15.6445-7.05078Q15.6445-5.72266 15.1514-4.56055Q14.6582-3.39844 13.7842-2.51953Q12.9102-1.64062 11.748-1.14746Q10.5859-0.654297 9.24805-0.654297ZM5.6543-7.05078Q5.6543-6.72852 5.85938-6.52832Q6.06445-6.32812 6.40625-6.32812L8.51562-6.32812L8.51562-4.20898Q8.51562-3.88672 8.71094-3.67676Q8.90625-3.4668 9.23828-3.4668Q9.56055-3.4668 9.77051-3.67676Q9.98047-3.88672 9.98047-4.20898L9.98047-6.32812L12.0898-6.32812Q12.4219-6.32812 12.627-6.52832Q12.832-6.72852 12.832-7.05078Q12.832-7.38281 12.627-7.58789Q12.4219-7.79297 12.0898-7.79297L9.98047-7.79297L9.98047-9.90234Q9.98047-10.2344 9.77051-10.4443Q9.56055-10.6543 9.23828-10.6543Q8.90625-10.6543 8.71094-10.4443Q8.51562-10.2344 8.51562-9.90234L8.51562-7.79297L6.40625-7.79297Q6.06445-7.79297 5.85938-7.58789Q5.6543-7.38281 5.6543-7.05078Z"/>
  </g>
  <g transform="matrix(1 0 0 1 281.867 1933)">
   <path d="M11.709 2.91016Q13.75 2.91016 15.5518 2.12891Q17.3535 1.34766 18.7305-0.0292969Q20.1074-1.40625 20.8887-3.20801Q21.6699-5.00977 21.6699-7.05078Q21.6699-9.0918 20.8887-10.8936Q20.1074-12.6953 18.7305-14.0723Q17.3535-15.4492 15.5469-16.2305Q13.7402-17.0117 11.6992-17.0117Q9.6582-17.0117 7.85645-16.2305Q6.05469-15.4492 4.68262-14.0723Q3.31055-12.6953 2.5293-10.8936Q1.74805-9.0918 1.74805-7.05078Q1.74805-5.00977 2.5293-3.20801Q3.31055-1.40625 4.6875-0.0292969Q6.06445 1.34766 7.86621 2.12891Q9.66797 2.91016 11.709 2.91016ZM11.709 1.25Q9.98047 1.25 8.47656 0.605469Q6.97266-0.0390625 5.83496-1.17676Q4.69727-2.31445 4.05762-3.81836Q3.41797-5.32227 3.41797-7.05078Q3.41797-8.7793 4.05762-10.2832Q4.69727-11.7871 5.83008-12.9297Q6.96289-14.0723 8.4668-14.7119Q9.9707-15.3516 11.6992-15.3516Q13.4277-15.3516 14.9316-14.7119Q16.4355-14.0723 17.5781-12.9297Q18.7207-11.7871 19.3652-10.2832Q20.0098-8.7793 20.0098-7.05078Q20.0098-5.32227 19.3701-3.81836Q18.7305-2.31445 17.5928-1.17676Q16.4551-0.0390625 14.9463 0.605469Q13.4375 1.25 11.709 1.25ZM7.17773-7.05078Q7.17773-6.69922 7.41211-6.47461Q7.64648-6.25 8.01758-6.25L10.8887-6.25L10.8887-3.36914Q10.8887-2.99805 11.1133-2.76855Q11.3379-2.53906 11.6895-2.53906Q12.0605-2.53906 12.29-2.76855Q12.5195-2.99805 12.5195-3.36914L12.5195-6.25L15.4004-6.25Q15.7715-6.25 16.001-6.47461Q16.2305-6.69922 16.2305-7.05078Q16.2305-7.42188 16.001-7.65137Q15.7715-7.88086 15.4004-7.88086L12.5195-7.88086L12.5195-10.752Q12.5195-11.1328 12.29-11.3623Q12.0605-11.5918 11.6895-11.5918Q11.3379-11.5918 11.1133-11.3574Q10.8887-11.123 10.8887-10.752L10.8887-7.88086L8.01758-7.88086Q7.63672-7.88086 7.40723-7.65137Q7.17773-7.42188 7.17773-7.05078Z"/>
  </g>
  <g transform="matrix(1 0 0 1 305.646 1933)">
   <path d="M14.9707 5.66406Q17.0605 5.66406 18.96 5.01465Q20.8594 4.36523 22.4512 3.19336Q24.043 2.02148 25.2197 0.429688Q26.3965-1.16211 27.0459-3.06641Q27.6953-4.9707 27.6953-7.05078Q27.6953-9.14062 27.0459-11.04Q26.3965-12.9395 25.2197-14.5312Q24.043-16.123 22.4512-17.2998Q20.8594-18.4766 18.9551-19.126Q17.0508-19.7754 14.9609-19.7754Q12.8711-19.7754 10.9717-19.126Q9.07227-18.4766 7.48535-17.2998Q5.89844-16.123 4.72168-14.5312Q3.54492-12.9395 2.90039-11.04Q2.25586-9.14062 2.25586-7.05078Q2.25586-4.9707 2.90527-3.06641Q3.55469-1.16211 4.72656 0.429688Q5.89844 2.02148 7.49023 3.19336Q9.08203 4.36523 10.9814 5.01465Q12.8809 5.66406 14.9707 5.66406ZM14.9707 3.84766Q13.1641 3.84766 11.5283 3.2959Q9.89258 2.74414 8.53516 1.74805Q7.17773 0.751953 6.17676-0.610352Q5.17578-1.97266 4.62891-3.6084Q4.08203-5.24414 4.08203-7.05078Q4.08203-8.86719 4.62891-10.5029Q5.17578-12.1387 6.17188-13.501Q7.16797-14.8633 8.52539-15.8594Q9.88281-16.8555 11.5186-17.4023Q13.1543-17.9492 14.9609-17.9492Q16.7773-17.9492 18.4131-17.4023Q20.0488-16.8555 21.4111-15.8594Q22.7734-14.8633 23.7695-13.501Q24.7656-12.1387 25.3174-10.5029Q25.8691-8.86719 25.8691-7.05078Q25.8789-5.24414 25.332-3.6084Q24.7852-1.97266 23.7842-0.610352Q22.7832 0.751953 21.4209 1.74805Q20.0586 2.74414 18.4229 3.2959Q16.7871 3.84766 14.9707 3.84766ZM9.19922-7.05078Q9.19922-6.66992 9.45801-6.4209Q9.7168-6.17188 10.1172-6.17188L14.0625-6.17188L14.0625-2.2168Q14.0625-1.81641 14.3115-1.55762Q14.5605-1.29883 14.9512-1.29883Q15.3516-1.29883 15.6104-1.55273Q15.8691-1.80664 15.8691-2.2168L15.8691-6.17188L19.8242-6.17188Q20.2246-6.17188 20.4785-6.4209Q20.7324-6.66992 20.7324-7.05078Q20.7324-7.46094 20.4785-7.71484Q20.2246-7.96875 19.8242-7.96875L15.8691-7.96875L15.8691-11.9141Q15.8691-12.3242 15.6104-12.583Q15.3516-12.8418 14.9512-12.8418Q14.5605-12.8418 14.3115-12.583Q14.0625-12.3242 14.0625-11.9141L14.0625-7.96875L10.1172-7.96875Q9.70703-7.96875 9.45312-7.71484Q9.19922-7.46094 9.19922-7.05078Z"/>
  </g>
  <text style="stroke:none;fill:black;font-family:sans-serif;font-size:13;font-weight:bold;" transform="matrix(1 0 0 1 263 1953)">Design Variations</text>
  <text style="stroke:none;fill:black;font-family:sans-serif;font-size:13;" transform="matrix(1 0 0 1 263 1971)">Symbols are supported in up to nine weights and three scales.</text>
  <text style="stroke:none;fill:black;font-family:sans-serif;font-size:13;" transform="matrix(1 0 0 1 263 1989)">For optimal layout with text and other symbols, vertically align</text>
  <text style="stroke:none;fill:black;font-family:sans-serif;font-size:13;" transform="matrix(1 0 0 1 263 2007)">symbols with the adjacent text.</text>
  <line style="fill:none;stroke:#00AEEF;stroke-width:0.5;opacity:1.0;" x1="776" x2="776" y1="1919" y2="1933"/>
  <g transform="matrix(1 0 0 1 776 1933)">
   <path d="M3.31055 0.15625Q3.70117 0.15625 3.91602-0.00976562Q4.13086-0.175781 4.26758-0.585938L5.52734-4.0332L11.2891-4.0332L12.5488-0.585938Q12.6855-0.175781 12.9004-0.00976562Q13.1152 0.15625 13.4961 0.15625Q13.8867 0.15625 14.1162-0.0585938Q14.3457-0.273438 14.3457-0.644531Q14.3457-0.869141 14.2383-1.17188L9.6582-13.3691Q9.48242-13.8184 9.17969-14.043Q8.87695-14.2676 8.4082-14.2676Q7.5-14.2676 7.17773-13.3789L2.59766-1.16211Q2.49023-0.859375 2.49023-0.634766Q2.49023-0.263672 2.70996-0.0537109Q2.92969 0.15625 3.31055 0.15625ZM6.00586-5.51758L8.37891-12.0898L8.42773-12.0898L10.8008-5.51758Z"/>
  </g>
  <line style="fill:none;stroke:#00AEEF;stroke-width:0.5;opacity:1.0;" x1="793.197" x2="793.197" y1="1919" y2="1933"/>
  <text style="stroke:none;fill:black;font-family:sans-serif;font-size:13;font-weight:bold;" transform="matrix(1 0 0 1 776 1953)">Margins</text>
  <text style="stroke:none;fill:black;font-family:sans-serif;font-size:13;" transform="matrix(1 0 0 1 776 1971)">Leading and trailing margins on the left and right side of each symbol</text>
  <text style="stroke:none;fill:black;font-family:sans-serif;font-size:13;" transform="matrix(1 0 0 1 776 1989)">can be adjusted by modifying the x-location of the margin guidelines.</text>
  <text style="stroke:none;fill:black;font-family:sans-serif;font-size:13;" transform="matrix(1 0 0 1 776 2007)">Modifications are automatically applied proportionally to all</text>
  <text style="stroke:none;fill:black;font-family:sans-serif;font-size:13;" transform="matrix(1 0 0 1 776 2025)">scales and weights.</text>
  <g transform="matrix(1 0 0 1 1289 1933)">
   <path d="M2.8418 1.86523L4.54102 3.57422Q5.18555 4.22852 5.90332 4.17969Q6.62109 4.13086 7.31445 3.35938L18.0078-8.42773L17.041-9.4043L6.42578 2.27539Q6.16211 2.57812 5.89355 2.61719Q5.625 2.65625 5.27344 2.30469L4.10156 1.14258Q3.75 0.791016 3.79395 0.522461Q3.83789 0.253906 4.14062-0.0195312L15.6152-10.8203L14.6387-11.7871L3.04688-0.898438Q2.30469-0.214844 2.25098 0.498047Q2.19727 1.21094 2.8418 1.86523ZM9.25781-16.3281Q8.94531-16.0254 8.90625-15.6348Q8.86719-15.2441 9.04297-14.9512Q9.21875-14.6777 9.55566-14.541Q9.89258-14.4043 10.3809-14.5215Q11.4746-14.7754 12.5977-14.7314Q13.7207-14.6875 14.7949-13.9844L14.209-12.5293Q13.9551-11.9043 14.0674-11.4404Q14.1797-10.9766 14.5801-10.5664L16.875-8.25195Q17.2363-7.88086 17.5781-7.82227Q17.9199-7.76367 18.3398-7.8418L19.4043-8.03711L20.0684-7.36328L20.0293-6.80664Q20-6.43555 20.1221-6.12305Q20.2441-5.81055 20.6055-5.44922L21.3672-4.70703Q21.7285-4.3457 22.1533-4.33105Q22.5781-4.31641 22.9297-4.66797L25.8398-7.58789Q26.1914-7.93945 26.1816-8.35449Q26.1719-8.76953 25.8105-9.13086L25.0391-9.89258Q24.6875-10.2539 24.3799-10.3857Q24.0723-10.5176 23.7109-10.4883L23.1348-10.4395L22.4902-11.0742L22.7344-12.1973Q22.832-12.6172 22.6953-12.9834Q22.5586-13.3496 22.1191-13.7891L19.9219-15.9766Q18.6719-17.2168 17.2607-17.8369Q15.8496-18.457 14.4189-18.4814Q12.9883-18.5059 11.665-17.959Q10.3418-17.4121 9.25781-16.3281ZM10.752-15.957Q11.6602-16.6211 12.7002-16.9043Q13.7402-17.1875 14.8047-17.085Q15.8691-16.9824 16.8701-16.5137Q17.8711-16.0449 18.7012-15.2051L21.1328-12.793Q21.3086-12.6172 21.3525-12.4512Q21.3965-12.2852 21.3379-12.0312L21.0156-10.5469L22.5195-9.0625L23.5059-9.12109Q23.6914-9.13086 23.7891-9.09668Q23.8867-9.0625 24.0332-8.91602L24.6094-8.33984L22.168-5.89844L21.5918-6.47461Q21.4453-6.62109 21.4062-6.71875Q21.3672-6.81641 21.377-7.01172L21.4453-7.98828L19.9512-9.47266L18.4277-9.21875Q18.1836-9.16992 18.042-9.2041Q17.9004-9.23828 17.7148-9.41406L15.7129-11.416Q15.5176-11.5918 15.4932-11.7529Q15.4688-11.9141 15.5859-12.1875L16.4648-14.2773Q15.293-15.3711 13.8281-15.791Q12.3633-16.2109 10.8398-15.7617Q10.7227-15.7324 10.6885-15.8057Q10.6543-15.8789 10.752-15.957Z"/>
  </g>
  <text style="stroke:none;fill:black;font-family:sans-serif;font-size:13;font-weight:bold;" transform="matrix(1 0 0 1 1289 1953)">Exporting</text>
  <text style="stroke:none;fill:black;font-family:sans-serif;font-size:13;" transform="matrix(1 0 0 1 1289 1971)">Symbols should be outlined when exporting to ensure the</text>
  <text style="stroke:none;fill:black;font-family:sans-serif;font-size:13;" transform="matrix(1 0 0 1 1289 1989)">design is preserved when submitting to Xcode.</text>
  <text id="template-version" style="stroke:none;fill:black;font-family:sans-serif;font-size:13;text-anchor:end;" transform="matrix(1 0 0 1 3036 1933)">Template v.3.0</text>
  <text style="stroke:none;fill:black;font-family:sans-serif;font-size:13;text-anchor:end;" transform="matrix(1 0 0 1 3036 1951)">Requires Xcode 13 or greater</text>
  <text id="descriptive-name" style="stroke:none;fill:black;font-family:sans-serif;font-size:13;text-anchor:end;" transform="matrix(1 0 0 1 3036 1969)">Generated from logout.symbol</text>
  <text style="stroke:none;fill:black;font-family:sans-serif;font-size:13;text-anchor:end;" transform="matrix(1 0 0 1 3036 1987)">Typeset at 100 points</text>
  <text style="stroke:none;fill:black;font-family:sans-serif;font-size:13;" transform="matrix(1 0 0 1 263 726)">Small</text>
  <text style="stroke:none;fill:black;font-family:sans-serif;font-size:13;" transform="matrix(1 0 0 1 263 1156)">Medium</text>
  <text style="stroke:none;fill:black;font-family:sans-serif;font-size:13;" transform="matrix(1 0 0 1 263 1586)">Large</text>
 </g>
 <g id="Guides">
  <g id="H-reference" style="fill:#27AAE1;stroke:none;" transform="matrix(1 0 0 1 339 696)">
   <path d="M0.993347 0L3.6377 0L29.3282-67.1326L30.0301-67.1326L30.0301-70.459L28.1227-70.459ZM11.6882-24.4797L46.9818-24.4797L46.2311-26.7288L12.4382-26.7288ZM55.1193 0L57.7637 0L30.6381-70.459L29.4327-70.459L29.4327-67.1326Z"/>
  </g>
  <line id="Baseline-S" style="fill:none;stroke:#27AAE1;opacity:1;stroke-width:0.5;" x1="263" x2="3036" y1="696" y2="696"/>
  <line id="Capline-S" style="fill:none;stroke:#27AAE1;opacity:1;stroke-width:0.5;" x1="263" x2="3036" y1="625.541" y2="625.541"/>
  <g id="H-reference" style="fill:#27AAE1;stroke:none;" transform="matrix(1 0 0 1 339 1126)">
   <path d="M0.993347 0L3.6377 0L29.3282-67.1326L30.0301-67.1326L30.0301-70.459L28.1227-70.459ZM11.6882-24.4797L46.9818-24.4797L46.2311-26.7288L12.4382-26.7288ZM55.1193 0L57.7637 0L30.6381-70.459L29.4327-70.459L29.4327-67.1326Z"/>
  </g>
  <line id="Baseline-M" style="fill:none;stroke:#27AAE1;opacity:1;stroke-width:0.5;" x1="263" x2="3036" y1="1126" y2="1126"/>
  <line id="Capline-M" style="fill:none;stroke:#27AAE1;opacity:1;stroke-width:0.5;" x1="263" x2="3036" y1="1055.54" y2="1055.54"/>
  <g id="H-reference" style="fill:#27AAE1;stroke:none;" transform="matrix(1 0 0 1 339 1556)">
   <path d="M0.993347 0L3.6377 0L29.3282-67.1326L30.0301-67.1326L30.0301-70.459L28.1227-70.459ZM11.6882-24.4797L46.9818-24.4797L46.2311-26.7288L12.4382-26.7288ZM55.1193 0L57.7637 0L30.6381-70.459L29.4327-70.459L29.4327-67.1326Z"/>
  </g>
  <line id="Baseline-L" style="fill:none;stroke:#27AAE1;opacity:1;stroke-width:0.5;" x1="263" x2="3036" y1="1556" y2="1556"/>
  <line id="Capline-L" style="fill:none;stroke:#27AAE1;opacity:1;stroke-width:0.5;" x1="263" x2="3036" y1="1485.54" y2="1485.54"/>
  <line id="left-margin-Regular-M" style="fill:none;stroke:#00AEEF;stroke-width:0.5;opacity:1.0;" x1="1380.73" x2="1380.73" y1="1030.78" y2="1150.12"/>
  <line id="right-margin-Regular-M" style="fill:none;stroke:#00AEEF;stroke-width:0.5;opacity:1.0;" x1="1518.96" x2="1518.96" y1="1030.78" y2="1150.12"/>
 </g>
 <g id="Symbols">
  <g id="Black-L" transform="matrix(1 0 0 1 2837.46 1556)">
   <path d="M39.7724 35.1922L107.573 35.1922Q118.9 35.1922 125.091 28.9902Q131.282 22.7881 131.282 11.4205L131.282-13.976L111.282-13.976L111.282 8.68981Q111.282 11.8966 109.751 13.5539Q108.221 15.2112 104.738 15.2112L42.628 15.2112Q39.1823 15.2112 37.6236 13.5539Q36.065 11.8966 36.065 8.68981L36.065-79.107Q36.065-82.3722 37.6236-84.0002Q39.1823-85.6283 42.628-85.6283L104.738-85.6283Q108.221-85.6283 109.751-84.0002Q111.282-82.3722 111.282-79.107L111.282-56.0932L131.282-56.0932L131.282-81.8377Q131.282-93.1844 125.091-99.3968Q118.9-105.609 107.573-105.609L39.7724-105.609Q28.4465-105.609 22.2652-99.3968Q16.084-93.1844 16.084-81.8377L16.084 11.4205Q16.084 22.7881 22.2652 28.9902Q28.4465 35.1922 39.7724 35.1922ZM86.703-26.5846L145.883-26.5846L155.03-27.3533L149.995-24.6983L143.178-18.3014Q140.747-16.0493 140.747-12.7285Q140.747-9.91892 142.724-7.62904Q144.701-5.33916 147.841-5.33916Q150.726-5.33916 152.981-7.59414L172.73-28.2138Q174.427-29.969 175.117-31.7411Q175.806-33.513 175.806-35.2694Q175.806-37.0841 175.117-38.827Q174.427-40.5697 172.73-42.3249L152.981-62.9458Q150.726-65.2008 147.841-65.2008Q144.701-65.2008 142.724-62.9219Q140.747-60.643 140.747-57.8323Q140.747-54.4906 143.178-52.2386L149.995-45.8416L155.052-43.1856L145.883-43.9542L86.703-43.9542Q83.2486-43.9542 80.6835-41.4662Q78.1183-38.9782 78.1183-35.2694Q78.1183-31.6189 80.6835-29.1017Q83.2486-26.5846 86.703-26.5846Z"/>
  </g>
  <g id="Heavy-L" transform="matrix(1 0 0 1 2542.44 1556)">
   <path d="M38.7107 34.4875L106.333 34.4875Q117.252 34.4875 123.121 28.6003Q128.99 22.7132 128.99 11.74L128.99-14.6355L111.465-14.6355L111.465 9.61578Q111.465 13.2175 109.685 15.1023Q107.904 16.9871 104.058 16.9871L41.0161 16.9871Q37.1843 16.9871 35.3843 15.1023Q33.5844 13.2175 33.5844 9.61578L33.5844-80.0429Q33.5844-83.6892 35.3843-85.5516Q37.1843-87.4142 41.0161-87.4142L104.058-87.4142Q107.904-87.4142 109.685-85.5516Q111.465-83.6892 111.465-80.0429L111.465-55.5351L128.99-55.5351L128.99-82.1671Q128.99-93.1101 123.121-99.0123Q117.252-104.915 106.333-104.915L38.7107-104.915Q27.7979-104.915 21.9409-99.0123Q16.084-93.1101 16.084-82.1671L16.084 11.74Q16.084 22.7132 21.9409 28.6003Q27.7979 34.4875 38.7107 34.4875ZM83.5848-27.531L144.284-27.531L153.474-28.2086L148.486-25.0776L140.823-17.8583Q138.632-15.8477 138.632-12.8446Q138.632-10.27 140.418-8.23058Q142.205-6.19111 145.022-6.19111Q147.626-6.19111 149.677-8.24198L169.693-29.0752Q171.203-30.6303 171.808-32.1696Q172.414-33.7088 172.414-35.2694Q172.414-36.8746 171.808-38.3915Q171.203-39.9085 169.693-41.4635L149.677-62.3024Q147.626-64.3533 145.022-64.3533Q142.205-64.3533 140.418-62.3316Q138.632-60.31 138.632-57.7299Q138.632-54.6966 140.823-52.6861L148.486-45.4668L153.51-42.3302L144.284-43.0077L83.5848-43.0077Q80.5083-43.0077 78.2299-40.7812Q75.9515-38.5546 75.9515-35.2694Q75.9515-32.0287 78.2299-29.7799Q80.5083-27.531 83.5848-27.531Z"/>
  </g>
  <g id="Bold-L" transform="matrix(1 0 0 1 2247.82 1556)">
   <path d="M37.3893 33.6564L104.864 33.6564Q115.253 33.6564 120.73 28.1535Q126.207 22.6507 126.207 12.1991L126.207-15.4053L111.741-15.4053L111.741 10.7533Q111.741 14.8691 109.645 17.0419Q107.55 19.2146 103.228 19.2146L39.063 19.2146Q34.7324 19.2146 32.6291 17.0419Q30.5258 14.8691 30.5258 10.7533L30.5258-81.1808Q30.5258-85.3258 32.6291-87.4839Q34.7324-89.6421 39.063-89.6421L103.228-89.6421Q107.55-89.6421 109.645-87.4839Q111.741-85.3258 111.741-81.1808L111.741-54.8734L126.207-54.8734L126.207-82.6265Q126.207-93.0403 120.73-98.562Q115.253-104.084 104.864-104.084L37.3893-104.084Q27.0136-104.084 21.5488-98.562Q16.084-93.0403 16.084-82.6265L16.084 12.1991Q16.084 22.6507 21.5488 28.1535Q27.0136 33.6564 37.3893 33.6564ZM79.7273-28.7289L142.503-28.7289L151.709-29.2913L146.612-25.4644L137.888-17.186Q136.005-15.4749 136.005-12.8862Q136.005-10.6334 137.545-8.90884Q139.086-7.1843 141.489-7.1843Q143.724-7.1843 145.507-8.96668L165.958-30.1432Q167.23-31.445 167.731-32.6998Q168.233-33.9545 168.233-35.2694Q168.233-36.6134 167.731-37.8536Q167.23-39.0938 165.958-40.3955L145.507-61.5854Q143.724-63.3678 141.489-63.3678Q139.086-63.3678 137.545-61.6687Q136.005-59.9696 136.005-57.7037Q136.005-55.0769 137.888-53.3661L146.612-45.0877L151.76-41.2475L142.503-41.8098L79.7273-41.8098Q77.127-41.8098 75.2095-39.9172Q73.292-38.0245 73.292-35.2694Q73.292-32.5434 75.2095-30.6361Q77.127-28.7289 79.7273-28.7289Z"/>
  </g>
  <g id="Semibold-L" transform="matrix(1 0 0 1 1952.55 1556)">
   <path d="M36.4783 33.0834L103.85 33.0834Q113.874 33.0834 119.081 27.8455Q124.288 22.6077 124.288 12.5156L124.288-15.936L111.93-15.936L111.93 11.5375Q111.93 16.0077 109.618 18.379Q107.305 20.7502 102.655 20.7502L37.7166 20.7502Q33.0421 20.7502 30.7296 18.379Q28.4172 16.0077 28.4172 11.5375L28.4172-81.9653Q28.4172-86.454 30.7296-88.8159Q33.0421-91.178 37.7166-91.178L102.655-91.178Q107.305-91.178 109.618-88.8159Q111.93-86.454 111.93-81.9653L111.93-54.4172L124.288-54.4172L124.288-82.9433Q124.288-92.9922 119.081-98.2516Q113.874-103.511 103.85-103.511L36.4783-103.511Q26.4729-103.511 21.2784-98.2516Q16.084-92.9922 16.084-82.9433L16.084 12.5156Q16.084 22.6077 21.2784 27.8455Q26.4729 33.0834 36.4783 33.0834ZM77.0679-29.5547L141.275-29.5547L150.493-30.0377L145.319-25.731L135.865-16.7225Q134.193-15.218 134.193-12.9149Q134.193-10.8839 135.564-9.37643Q136.936-7.86899 139.053-7.86899Q141.034-7.86899 142.632-9.46628L163.382-30.8795Q164.491-32.0066 164.921-33.0654Q165.351-34.1239 165.351-35.2694Q165.351-36.4334 164.921-37.4827Q164.491-38.5321 163.382-39.6592L142.632-61.0911Q141.034-62.6884 139.053-62.6884Q136.936-62.6884 135.564-61.2117Q134.193-59.735 134.193-57.6856Q134.193-55.3391 135.865-53.8349L145.319-44.8263L150.555-40.5011L141.275-40.984L77.0679-40.984Q74.796-40.984 73.1273-39.3216Q71.4586-37.6591 71.4586-35.2694Q71.4586-32.8982 73.1273-31.2265Q74.796-29.5547 77.0679-29.5547Z"/>
  </g>
  <g id="Medium-L" transform="matrix(1 0 0 1 1656.93 1556)">
   <path d="M35.7876 32.6489L103.082 32.6489Q112.829 32.6489 117.831 27.612Q122.833 22.575 122.833 12.7556L122.833-16.3385L112.074-16.3385L112.074 12.1322Q112.074 16.8711 109.597 19.3928Q107.12 21.9146 102.221 21.9146L36.6956 21.9146Q31.7604 21.9146 29.2893 19.3928Q26.8183 16.8711 26.8183 12.1322L26.8183-82.5601Q26.8183-87.3095 29.2893-89.826Q31.7604-92.3426 36.6956-92.3426L102.221-92.3426Q107.12-92.3426 109.597-89.826Q112.074-87.3095 112.074-82.5601L112.074-54.0713L122.833-54.0713L122.833-83.1834Q122.833-92.9557 117.831-98.0162Q112.829-103.077 103.082-103.077L35.7876-103.077Q26.063-103.077 21.0735-98.0162Q16.084-92.9557 16.084-83.1834L16.084 12.7556Q16.084 22.575 21.0735 27.612Q26.063 32.6489 35.7876 32.6489ZM75.0515-30.1809L140.344-30.1809L149.57-30.6036L144.339-25.9332L134.331-16.371Q132.82-15.0231 132.82-12.9367Q132.82-11.0738 134.063-9.73097Q135.306-8.38816 137.206-8.38816Q138.995-8.38816 140.452-9.8451L161.43-31.4378Q162.414-32.4325 162.79-33.3425Q163.166-34.2524 163.166-35.2694Q163.166-36.2969 162.79-37.2015Q162.414-38.1063 161.43-39.1009L140.452-60.7163Q138.995-62.1732 137.206-62.1732Q135.306-62.1732 134.063-60.8651Q132.82-59.5571 132.82-57.6719Q132.82-55.5379 134.331-54.1903L144.339-44.6281L149.64-39.9352L140.344-40.3578L75.0515-40.3578Q73.0285-40.3578 71.5484-38.8699Q70.0684-37.3821 70.0684-35.2694Q70.0684-33.1672 71.5484-31.674Q73.0285-30.1809 75.0515-30.1809Z"/>
  </g>
  <g id="Regular-L" transform="matrix(1 0 0 1 1361.64 1556)">
   <path d="M34.8866 32.0823L102.08 32.0823Q111.466 32.0823 116.201 27.3074Q120.935 22.5325 120.935 13.0686L120.935-16.8634L112.262-16.8634L112.262 12.9078Q112.262 17.9972 109.57 20.7153Q106.878 23.4334 101.655 23.4334L35.364 23.4334Q30.0887 23.4334 27.4108 20.7153Q24.7329 17.9972 24.7329 12.9078L24.7329-83.336Q24.7329-88.4253 27.4108-91.1434Q30.0887-93.8616 35.364-93.8616L101.655-93.8616Q106.878-93.8616 109.57-91.1434Q112.262-88.4253 112.262-83.336L112.262-53.6202L120.935-53.6202L120.935-83.4967Q120.935-92.9081 116.201-97.7092Q111.466-102.51 102.08-102.51L34.8866-102.51Q25.5282-102.51 20.8061-97.7092Q16.084-92.9081 16.084-83.4967L16.084 13.0686Q16.084 22.5325 20.8061 27.3074Q25.5282 32.0823 34.8866 32.0823ZM72.4214-30.9977L139.129-30.9977L148.367-31.3418L143.061-26.197L132.33-15.9126Q131.028-14.769 131.028-12.965Q131.028-11.3215 132.104-10.1934Q133.179-9.06533 134.797-9.06533Q136.335-9.06533 137.609-10.3392L158.883-32.166Q159.705-32.988 160.01-33.704Q160.315-34.42 160.315-35.2694Q160.315-36.1188 160.01-36.8347Q159.705-37.5508 158.883-38.3728L137.609-60.2274Q136.335-61.5013 134.797-61.5013Q133.179-61.5013 132.104-60.4131Q131.028-59.325 131.028-57.6541Q131.028-55.7971 132.33-54.6539L143.061-44.3696L148.447-39.197L139.129-39.541L72.4214-39.541Q70.723-39.541 69.4891-38.2809Q68.2551-37.0207 68.2551-35.2694Q68.2551-33.5181 69.4891-32.2579Q70.723-30.9977 72.4214-30.9977Z"/>
  </g>
  <g id="Light-L" transform="matrix(1 0 0 1 1066.31 1556)">
   <path d="M33.9323 31.777L101.489 31.777Q110.359 31.777 114.865 27.2311Q119.37 22.6851 119.37 13.7939L119.37-17.0923L112.758-17.0923L112.758 13.6331Q112.758 19.2378 109.818 22.1944Q106.878 25.1511 101.159 25.1511L34.2952 25.1511Q28.5428 25.1511 25.6263 22.1944Q22.7099 19.2378 22.7099 13.6331L22.7099-83.985Q22.7099-89.5896 25.6263-92.5463Q28.5428-95.503 34.2952-95.503L101.159-95.503Q106.878-95.503 109.818-92.5463Q112.758-89.5896 112.758-83.985L112.758-53.353L119.37-53.353L119.37-84.1457Q119.37-93.0037 114.865-97.5662Q110.359-102.129 101.489-102.129L33.9323-102.129Q25.1085-102.129 20.5962-97.5662Q16.084-93.0037 16.084-84.1457L16.084 13.7939Q16.084 22.6851 20.5962 27.2311Q25.1085 31.777 33.9323 31.777ZM69.7875-31.9901L139.187-31.9901L148.195-32.2386L141.725-25.9298L130.192-14.6531Q129.158-13.7191 129.158-12.3353Q129.158-11.1115 130.004-10.2316Q130.851-9.35167 132.087-9.35167Q133.243-9.35167 134.231-10.3392L156.479-32.9102Q157.09-33.5226 157.329-34.0667Q157.567-34.6108 157.567-35.2694Q157.567-35.928 157.329-36.4721Q157.09-37.0163 156.479-37.6285L134.231-60.2467Q133.243-61.2342 132.087-61.2342Q130.851-61.2342 130.004-60.3941Q129.158-59.5539 129.158-58.2838Q129.158-56.8659 130.192-55.9327L141.725-44.6559L148.276-38.3001L139.187-38.5486L69.7875-38.5486Q68.4711-38.5486 67.5233-37.5842Q66.5755-36.6198 66.5755-35.2694Q66.5755-33.9189 67.5233-32.9545Q68.4711-31.9901 69.7875-31.9901Z"/>
  </g>
  <g id="Thin-L" transform="matrix(1 0 0 1 771.414 1556)">
   <path d="M32.6702 31.3733L100.706 31.3733Q108.896 31.3733 113.098 27.1301Q117.3 22.887 117.3 14.7532L117.3-17.3951L113.415-17.3951L113.415 14.5924Q113.415 20.8786 110.146 24.1508Q106.878 27.423 100.502 27.423L32.8817 27.423Q26.4983 27.423 23.2662 24.1508Q20.0343 20.8786 20.0343 14.5924L20.0343-84.8433Q20.0343-91.1294 23.2662-94.4017Q26.4983-97.674 32.8817-97.674L100.502-97.674Q106.878-97.674 110.146-94.4017Q113.415-91.1294 113.415-84.8433L113.415-52.9997L117.3-52.9997L117.3-85.0041Q117.3-93.1301 113.098-97.377Q108.896-101.624 100.706-101.624L32.6702-101.624Q24.5534-101.624 20.3186-97.377Q16.084-93.1301 16.084-85.0041L16.084 14.7532Q16.084 22.887 20.3186 27.1301Q24.5534 31.3733 32.6702 31.3733ZM66.304-33.3027L139.263-33.3027L147.968-33.4248L139.959-25.5765L127.365-12.9872Q126.684-12.3306 126.684-11.5024Q126.684-10.8337 127.228-10.2821Q127.772-9.73038 128.502-9.73038Q129.154-9.73038 129.763-10.3392L153.298-33.8945Q153.632-34.2296 153.782-34.5464Q153.932-34.8632 153.932-35.2694Q153.932-35.6757 153.782-35.9925Q153.632-36.3093 153.298-36.6442L129.763-60.2721Q129.154-60.8809 128.502-60.8809Q127.772-60.8809 127.228-60.3688Q126.684-59.8567 126.684-59.1167Q126.684-58.2794 127.365-57.624L139.959-45.0347L148.048-37.1139L139.263-37.236L66.304-37.236Q65.4927-37.236 64.9234-36.6629Q64.3541-36.0897 64.3541-35.2694Q64.3541-34.449 64.9234-33.8759Q65.4927-33.3027 66.304-33.3027Z"/>
  </g>
  <g id="Ultralight-L" transform="matrix(1 0 0 1 475.635 1556)">
   <path d="M32.0238 31.1665L100.305 31.1665Q108.146 31.1665 112.193 27.0784Q116.24 22.9904 116.24 15.2446L116.24-17.5502L113.751-17.5502L113.751 15.0837Q113.751 21.719 110.314 25.1528Q106.878 28.5866 100.166 28.5866L32.1577 28.5866Q25.4511 28.5866 22.0574 25.1528Q18.6638 21.719 18.6638 15.0837L18.6638-85.283Q18.6638-91.9182 22.0574-95.352Q25.4511-98.7859 32.1577-98.7859L100.166-98.7859Q106.878-98.7859 110.314-95.352Q113.751-91.9182 113.751-85.283L113.751-52.8188L116.24-52.8188L116.24-85.4437Q116.24-93.1948 112.193-97.2801Q108.146-101.366 100.305-101.366L32.0238-101.366Q24.2691-101.366 20.1764-97.2801Q16.084-93.1948 16.084-85.4437L16.084 15.2446Q16.084 22.9904 20.1764 27.0784Q24.2691 31.1665 32.0238 31.1665ZM64.5198-33.975L139.301-33.975L147.851-34.0323L139.054-25.3956L125.917-12.1339Q125.417-11.6195 125.417-11.0758Q125.417-10.6915 125.806-10.3079Q126.194-9.92436 126.667-9.92436Q127.06-9.92436 127.475-10.3392L151.669-34.3987Q151.861-34.5917 151.966-34.792Q152.07-34.9924 152.07-35.2694Q152.07-35.5465 151.966-35.7469Q151.861-35.9472 151.669-36.14L127.475-60.2852Q127.06-60.7 126.667-60.7Q126.194-60.7 125.806-60.3559Q125.417-60.0118 125.417-59.5433Q125.417-59.0034 125.917-58.4903L139.054-45.2286L147.932-36.5064L139.301-36.5638L64.5198-36.5638Q63.9672-36.5638 63.5918-36.191Q63.2163-35.8182 63.2163-35.2694Q63.2163-34.7206 63.5918-34.3478Q63.9672-33.975 64.5198-33.975Z"/>
  </g>
  <g id="Black-M" transform="matrix(1 0 0 1 2857.8 1126)">
   <path d="M31.5964 19.8933L84.3264 19.8933Q93.3836 19.8933 98.4255 14.8487Q103.467 9.80416 103.467 0.735832L103.467-18.2279L86.1238-18.2279L86.1238-1.90101Q86.1238 0.313864 85.1199 1.43461Q84.1161 2.55536 81.6622 2.55536L34.2662 2.55536Q31.8639 2.55536 30.8314 1.43461Q29.7989 0.313864 29.7989-1.90101L29.7989-68.507Q29.7989-70.7789 30.8314-71.8711Q31.8639-72.9633 34.2662-72.9633L81.6622-72.9633Q84.1161-72.9633 85.1199-71.8711Q86.1238-70.7789 86.1238-68.507L86.1238-51.837L103.467-51.837L103.467-71.1438Q103.467-80.2066 98.4255-85.2539Q93.3836-90.3013 84.3264-90.3013L31.5964-90.3013Q22.5391-90.3013 17.5-85.2539Q12.4609-80.2066 12.4609-71.1438L12.4609 0.735832Q12.4609 9.80416 17.5 14.8487Q22.5391 19.8933 31.5964 19.8933ZM69.4955-27.8531L114.404-27.8531L121.422-28.5139L117.323-26.7085L112.661-22.3248Q110.606-20.4009 110.606-17.612Q110.606-15.2902 112.271-13.3346Q113.936-11.3789 116.594-11.3789Q119.019-11.3789 120.903-13.2626L136.106-29.1548Q137.553-30.6582 138.15-32.2078Q138.748-33.7573 138.748-35.2605Q138.748-36.8207 138.15-38.3418Q137.553-39.8628 136.106-41.3662L120.903-57.2581Q119.019-59.1418 116.594-59.1418Q113.936-59.1418 112.271-57.1887Q110.606-55.2357 110.606-52.9142Q110.606-50.1198 112.661-48.1959L117.323-43.8122L121.427-42.0072L114.404-42.6679L69.4955-42.6679Q66.5462-42.6679 64.3512-40.5558Q62.1562-38.4436 62.1562-35.2605Q62.1562-32.1345 64.3512-29.9938Q66.5462-27.8531 69.4955-27.8531Z"/>
  </g>
  <g id="Heavy-M" transform="matrix(1 0 0 1 2562.62 1126)">
   <path d="M30.6466 19.2326L83.1692 19.2326Q91.8743 19.2326 96.6228 14.4747Q101.371 9.71681 101.371 0.981226L101.371-18.8514L86.2577-18.8514L86.2577-1.06273Q86.2577 1.49067 85.0319 2.81182Q83.8062 4.13296 81.0433 4.13296L32.7891 4.13296Q30.0533 4.13296 28.8069 2.81182Q27.5606 1.49067 27.5606-1.06273L27.5606-69.362Q27.5606-71.959 28.8069-73.2583Q30.0533-74.5577 32.7891-74.5577L81.0433-74.5577Q83.8062-74.5577 85.0319-73.2583Q86.2577-71.959 86.2577-69.362L86.2577-51.3161L101.371-51.3161L101.371-71.4059Q101.371-80.1251 96.6228-84.8911Q91.8743-89.6573 83.1692-89.6573L30.6466-89.6573Q21.9439-89.6573 17.2024-84.8911Q12.4609-80.1251 12.4609-71.4059L12.4609 0.981226Q12.4609 9.71681 17.2024 14.4747Q21.9439 19.2326 30.6466 19.2326ZM66.6902-28.6867L112.835-28.6867L119.917-29.2674L115.971-27.1039L110.555-22.0079Q108.712-20.3007 108.712-17.7836Q108.712-15.6528 110.211-13.9191Q111.71-12.1853 114.089-12.1853Q116.274-12.1853 117.984-13.8959L133.359-29.9282Q134.642-31.2553 135.164-32.5933Q135.685-33.9311 135.685-35.2605Q135.685-36.6335 135.164-37.9496Q134.642-39.2657 133.359-40.5928L117.984-56.6274Q116.274-58.3379 114.089-58.3379Q111.71-58.3379 110.211-56.6135Q108.712-54.8891 108.712-52.756Q108.712-50.2226 110.555-48.5154L115.971-43.4194L119.936-41.2537L112.835-41.8343L66.6902-41.8343Q64.0751-41.8343 62.134-39.9504Q60.1929-38.0665 60.1929-35.2605Q60.1929-32.4981 62.134-30.5924Q64.0751-28.6867 66.6902-28.6867Z"/>
  </g>
  <g id="Bold-M" transform="matrix(1 0 0 1 2267.62 1126)">
   <path d="M29.5842 18.4934L81.8747 18.4934Q90.186 18.4934 94.6062 14.0563Q99.0265 9.6191 99.0265 1.25573L99.0265-19.549L86.4074-19.549L86.4074-0.12499Q86.4074 2.80711 84.9334 4.35242Q83.4595 5.89773 80.3508 5.89773L31.1366 5.89773Q28.0279 5.89773 26.5423 4.35242Q25.0567 2.80711 25.0567-0.12499L25.0567-70.3184Q25.0567-73.2791 26.5423-74.81Q28.0279-76.3411 31.1366-76.3411L80.3508-76.3411Q83.4595-76.3411 84.9334-74.81Q86.4074-73.2791 86.4074-70.3184L86.4074-50.7334L99.0265-50.7334L99.0265-71.6991Q99.0265-80.0339 94.6062-84.4853Q90.186-88.9368 81.8747-88.9368L29.5842-88.9368Q21.278-88.9368 16.8695-84.4853Q12.4609-80.0339 12.4609-71.6991L12.4609 1.25573Q12.4609 9.6191 16.8695 14.0563Q21.278 18.4934 29.5842 18.4934ZM63.5521-29.6193L111.08-29.6193L118.233-30.1102L114.46-27.5462L108.2-21.6533Q106.592-20.1886 106.592-17.9756Q106.592-16.0585 107.907-14.573Q109.221-13.0874 111.286-13.0874Q113.203-13.0874 114.719-14.6043L130.285-30.7934Q131.386-31.9233 131.822-33.0245Q132.259-34.1255 132.259-35.2605Q132.259-36.424 131.822-37.5109Q131.386-38.5977 130.285-39.7276L114.719-55.9219Q113.203-57.4387 111.286-57.4387Q109.221-57.4387 107.907-55.97Q106.592-54.5013 106.592-52.5791Q106.592-50.3375 108.2-48.8728L114.46-42.9799L118.267-40.4108L111.08-40.9017L63.5521-40.9017Q61.3108-40.9017 59.6538-39.2732Q57.9967-37.6447 57.9967-35.2605Q57.9967-32.9049 59.6538-31.2621Q61.3108-29.6193 63.5521-29.6193Z"/>
  </g>
  <g id="Semibold-M" transform="matrix(1 0 0 1 1972.09 1126)">
   <path d="M28.8517 17.9839L80.9822 17.9839Q89.0221 17.9839 93.216 13.7678Q97.41 9.55173 97.41 1.44498L97.41-20.0299L86.5106-20.0299L86.5106 0.521482Q86.5106 3.71465 84.8656 5.4145Q83.2205 7.11436 79.8735 7.11436L29.9974 7.11436Q26.6316 7.11436 24.981 5.4145Q23.3305 3.71465 23.3305 0.521482L23.3305-70.9778Q23.3305-74.1891 24.981-75.8798Q26.6316-77.5707 29.9974-77.5707L79.8735-77.5707Q83.2205-77.5707 84.8656-75.8798Q86.5106-74.1891 86.5106-70.9778L86.5106-50.3317L97.41-50.3317L97.41-71.9012Q97.41-79.971 93.216-84.2056Q89.0221-88.4402 80.9822-88.4402L28.8517-88.4402Q20.819-88.4402 16.64-84.2056Q12.4609-79.971 12.4609-71.9012L12.4609 1.44498Q12.4609 9.55173 16.64 13.7678Q20.819 17.9839 28.8517 17.9839ZM61.3888-30.2622L109.87-30.2622L117.072-30.6913L113.418-27.8512L106.576-21.4089Q105.131-20.1113 105.131-18.108Q105.131-16.3381 106.318-15.0237Q107.505-13.7093 109.353-13.7093Q111.085-13.7093 112.469-15.0927L128.166-31.3899Q129.142-32.3838 129.519-33.3217Q129.896-34.2595 129.896-35.2605Q129.896-36.2796 129.519-37.2084Q129.142-38.1372 128.166-39.1311L112.469-55.4354Q111.085-56.8188 109.353-56.8188Q107.505-56.8188 106.318-55.5264Q105.131-54.234 105.131-52.4571Q105.131-50.4167 106.576-49.1193L113.418-42.677L117.116-39.8297L109.87-40.2588L61.3888-40.2588Q59.4051-40.2588 57.9439-38.8063Q56.4827-37.3538 56.4827-35.2605Q56.4827-33.1853 57.9439-31.7237Q59.4051-30.2622 61.3888-30.2622Z"/>
  </g>
  <g id="Medium-M" transform="matrix(1 0 0 1 1676.27 1126)">
   <path d="M28.2963 17.5975L80.3056 17.5975Q88.1395 17.5975 92.1619 13.5491Q96.1843 9.50066 96.1843 1.58847L96.1843-20.3945L86.5889-20.3945L86.5889 1.01166Q86.5889 4.40278 84.8141 6.21982Q83.0393 8.03685 79.5116 8.03685L29.1337 8.03685Q25.5728 8.03685 23.7972 6.21982Q22.0216 4.40278 22.0216 1.01166L22.0216-71.4777Q22.0216-74.8791 23.7972-76.691Q25.5728-78.503 29.1337-78.503L79.5116-78.503Q83.0393-78.503 84.8141-76.691Q86.5889-74.8791 86.5889-71.4777L86.5889-50.0271L96.1843-50.0271L96.1843-72.0545Q96.1843-79.9233 92.1619-83.9934Q88.1395-88.0636 80.3056-88.0636L28.2963-88.0636Q20.4709-88.0636 16.4659-83.9934Q12.4609-79.9233 12.4609-72.0545L12.4609 1.58847Q12.4609 9.50066 16.4659 13.5491Q20.4709 17.5975 28.2963 17.5975ZM59.7484-30.7497L108.953-30.7497L116.192-31.1319L112.627-28.0824L105.345-21.2235Q104.024-20.0527 104.024-18.2084Q104.024-16.5502 105.114-15.3655Q106.204-14.1809 107.888-14.1809Q109.48-14.1809 110.762-15.463L126.559-31.8421Q127.44-32.733 127.773-33.5471Q128.105-34.3612 128.105-35.2605Q128.105-36.1701 127.773-36.979Q127.44-37.788 126.559-38.6789L110.762-55.0666Q109.48-56.3488 107.888-56.3488Q106.204-56.3488 105.114-55.19Q104.024-54.0313 104.024-52.3646Q104.024-50.4768 105.345-49.3061L112.627-42.4473L116.244-39.3891L108.953-39.7713L59.7484-39.7713Q57.9601-39.7713 56.6474-38.4523Q55.3347-37.1333 55.3347-35.2605Q55.3347-33.3979 56.6474-32.0738Q57.9601-30.7497 59.7484-30.7497Z"/>
  </g>
  <g id="Regular-M" transform="matrix(1 0 0 1 1380.73 1126)">
   <path d="M27.5719 17.0936L79.4229 17.0936Q86.9884 17.0936 90.787 13.2638Q94.5855 9.43403 94.5855 1.77564L94.5855-20.8701L86.691-20.8701L86.691 1.65103Q86.691 5.30035 84.747 7.27023Q82.803 9.24011 79.0395 9.24011L28.007 9.24011Q24.1919 9.24011 22.2531 7.27023Q20.3144 5.30035 20.3144 1.65103L20.3144-72.1299Q20.3144-75.7792 22.2531-77.749Q24.1919-79.719 28.007-79.719L79.0395-79.719Q82.803-79.719 84.747-77.749Q86.691-75.7792 86.691-72.1299L86.691-49.6299L94.5855-49.6299L94.5855-72.2544Q94.5855-79.8612 90.787-83.7168Q86.9884-87.5724 79.4229-87.5724L27.5719-87.5724Q20.0169-87.5724 16.239-83.7168Q12.4609-79.8612 12.4609-72.2544L12.4609 1.77564Q12.4609 9.43403 16.239 13.2638Q20.0169 17.0936 27.5719 17.0936ZM57.6088-31.3855L107.757-31.3855L115.044-31.7065L111.597-28.384L103.739-20.9818Q102.579-19.9762 102.579-18.3393Q102.579-16.8268 103.542-15.8114Q104.506-14.796 105.977-14.796Q107.386-14.796 108.536-15.9461L124.464-32.4321Q125.22-33.1884 125.495-33.8411Q125.769-34.4937 125.769-35.2605Q125.769-36.0273 125.495-36.6799Q125.22-37.3326 124.464-38.0889L108.536-54.5856Q107.386-55.7357 105.977-55.7357Q104.506-55.7357 103.542-54.7513Q102.579-53.7669 102.579-52.244Q102.579-50.5552 103.739-49.5498L111.597-42.1477L115.106-38.8145L107.757-39.1355L57.6088-39.1355Q56.0754-39.1355 54.9563-37.9906Q53.8372-36.8457 53.8372-35.2605Q53.8372-33.6753 54.9563-32.5304Q56.0754-31.3855 57.6088-31.3855Z"/>
  </g>
  <g id="Light-M" transform="matrix(1 0 0 1 1085.25 1126)">
   <path d="M26.7163 16.8199L78.8925 16.8199Q85.996 16.8199 89.5892 13.1954Q93.1823 9.57087 93.1823 2.42593L93.1823-21.0754L87.136-21.0754L87.136 2.30132Q87.136 6.41263 84.9695 8.59639Q82.803 10.7802 78.5944 10.7802L27.0488 10.7802Q22.8059 10.7802 20.6533 8.59639Q18.5007 6.41263 18.5007 2.30132L18.5007-72.7117Q18.5007-76.823 20.6533-79.0068Q22.8059-81.1906 27.0488-81.1906L78.5944-81.1906Q82.803-81.1906 84.9695-79.0068Q87.136-76.823 87.136-72.7117L87.136-49.3904L93.1823-49.3904L93.1823-72.8363Q93.1823-79.9469 89.5892-83.5885Q85.996-87.2303 78.8925-87.2303L26.7163-87.2303Q19.6407-87.2303 16.0508-83.5885Q12.4609-79.9469 12.4609-72.8363L12.4609 2.42593Q12.4609 9.57087 16.0508 13.1954Q19.6407 16.8199 26.7163 16.8199ZM55.2474-32.2753L107.808-32.2753L114.89-32.5106L110.399-28.1445L101.823-19.8525Q100.902-19.035 100.902-17.7747Q100.902-16.6385 101.66-15.8456Q102.419-15.0527 103.547-15.0527Q104.614-15.0527 105.508-15.9461L122.308-33.0993Q122.876-33.6677 123.09-34.1663Q123.305-34.6648 123.305-35.2605Q123.305-35.8563 123.09-36.3548Q122.876-36.8534 122.308-37.4217L105.508-54.6028Q104.614-55.4962 103.547-55.4962Q102.419-55.4962 101.66-54.7342Q100.902-53.9722 100.902-52.8086Q100.902-51.5134 101.823-50.6963L110.399-42.4044L114.952-38.0104L107.808-38.2457L55.2474-38.2457Q54.0564-38.2457 53.1939-37.366Q52.3314-36.4864 52.3314-35.2605Q52.3314-34.0346 53.1939-33.155Q54.0564-32.2753 55.2474-32.2753Z"/>
  </g>
  <g id="Thin-M" transform="matrix(1 0 0 1 790.168 1126)">
   <path d="M25.5848 16.4579L78.191 16.4579Q84.6836 16.4579 88.005 13.1049Q91.3265 9.75186 91.3265 3.28599L91.3265-21.3468L87.7246-21.3468L87.7246 3.16137Q87.7246 7.88371 85.2638 10.3504Q82.803 12.817 78.0059 12.817L25.7815 12.817Q20.9729 12.817 18.5373 10.3504Q16.1019 7.88371 16.1019 3.16137L16.1019-73.4813Q16.1019-78.2036 18.5373-80.6703Q20.9729-83.137 25.7815-83.137L78.0059-83.137Q82.803-83.137 85.2638-80.6703Q87.7246-78.2036 87.7246-73.4813L87.7246-49.0736L91.3265-49.0736L91.3265-73.6058Q91.3265-80.0602 88.005-83.4189Q84.6836-86.7778 78.191-86.7778L25.5848-86.7778Q19.143-86.7778 15.8019-83.4189Q12.4609-80.0602 12.4609-73.6058L12.4609 3.28599Q12.4609 9.75186 15.8019 13.1049Q19.143 16.4579 25.5848 16.4579ZM52.1242-33.4521L107.876-33.4521L114.686-33.5741L108.815-27.8277L99.2885-18.359Q98.6839-17.7901 98.6839-17.0279Q98.6839-16.3894 99.171-15.8908Q99.658-15.3922 100.334-15.3922Q100.948-15.3922 101.502-15.9461L119.457-33.9818Q119.776-34.3015 119.911-34.5963Q120.046-34.891 120.046-35.2605Q120.046-35.6301 119.911-35.9248Q119.776-36.2196 119.457-36.5392L101.502-54.6257Q100.948-55.1795 100.334-55.1795Q99.658-55.1795 99.171-54.7116Q98.6839-54.2437 98.6839-53.5554Q98.6839-52.7807 99.2885-52.2126L108.815-42.7439L114.748-36.9469L107.876-37.0689L52.1242-37.0689Q51.3861-37.0689 50.8629-36.54Q50.3398-36.0111 50.3398-35.2605Q50.3398-34.5099 50.8629-33.981Q51.3861-33.4521 52.1242-33.4521Z"/>
  </g>
  <g id="Ultralight-M" transform="matrix(1 0 0 1 494.293 1126)">
   <path d="M25.0052 16.2725L77.8317 16.2725Q84.0113 16.2725 87.1935 13.0585Q90.3759 9.84456 90.3759 3.72651L90.3759-21.4859L88.026-21.4859L88.026 3.60189Q88.026 8.63719 85.4145 11.2487Q82.803 13.8603 77.7044 13.8603L25.1324 13.8603Q20.034 13.8603 17.4535 11.2487Q14.8732 8.63719 14.8732 3.60189L14.8732-73.8755Q14.8732-78.9107 17.4535-81.5223Q20.034-84.1339 25.1324-84.1339L77.7044-84.1339Q82.803-84.1339 85.4145-81.5223Q88.026-78.9107 88.026-73.8755L88.026-48.9114L90.3759-48.9114L90.3759-74Q90.3759-80.1182 87.1935-83.3321Q84.0113-86.5461 77.8317-86.5461L25.0052-86.5461Q18.8881-86.5461 15.6744-83.3321Q12.4609-80.1182 12.4609-74L12.4609 3.72651Q12.4609 9.84456 15.6744 13.0585Q18.8881 16.2725 25.0052 16.2725ZM50.5246-34.0548L107.911-34.0548L114.582-34.1188L108.004-27.6655L97.9903-17.594Q97.5479-17.1525 97.5479-16.6454Q97.5479-16.2619 97.896-15.914Q98.244-15.5661 98.6879-15.5661Q99.0705-15.5661 99.4505-15.9461L117.996-34.4338Q118.188-34.6262 118.282-34.8166Q118.377-35.0069 118.377-35.2605Q118.377-35.5142 118.282-35.7046Q118.188-35.8949 117.996-36.0872L99.4505-54.6373Q99.0705-55.0173 98.6879-55.0173Q98.244-55.0173 97.896-54.7Q97.5479-54.3827 97.5479-53.9378Q97.5479-53.4298 97.9903-52.9893L108.004-42.9178L114.644-36.4022L107.911-36.4662L50.5246-36.4662Q50.0184-36.4662 49.669-36.1169Q49.3197-35.7676 49.3197-35.2605Q49.3197-34.7534 49.669-34.4041Q50.0184-34.0548 50.5246-34.0548Z"/>
  </g>
  <g id="Black-S" transform="matrix(1 0 0 1 2873.76 696)">
   <path d="M25 8.1543L66.4062 8.1543Q73.584 8.1543 77.6123 4.12598Q81.6406 0.0976562 81.6406-7.08008L81.6406-21.7285L67.4805-21.7285L67.4805-9.32617Q67.4805-7.66602 66.748-6.83594Q66.0156-6.00586 64.1602-6.00586L27.2461-6.00586Q25.4395-6.00586 24.6826-6.83594Q23.9258-7.66602 23.9258-9.32617L23.9258-61.084Q23.9258-62.793 24.6826-63.5986Q25.4395-64.4043 27.2461-64.4043L64.1602-64.4043Q66.0156-64.4043 66.748-63.5986Q67.4805-62.793 67.4805-61.084L67.4805-48.3887L81.6406-48.3887L81.6406-63.3301Q81.6406-70.5078 77.6123-74.5361Q73.584-78.5645 66.4062-78.5645L25-78.5645Q17.8223-78.5645 13.7939-74.5361Q9.76562-70.5078 9.76562-63.3301L9.76562-7.08008Q9.76562 0.0976562 13.7939 4.12598Q17.8223 8.1543 25 8.1543ZM55.1758-29.248L90.1367-29.248L95.6055-29.7852L92.2852-28.418L88.8184-25.1465Q87.1582-23.584 87.1582-21.3379Q87.1582-19.4824 88.501-17.8955Q89.8438-16.3086 91.9922-16.3086Q93.9453-16.3086 95.459-17.8223L107.373-30.2734Q108.545-31.4941 109.033-32.7637Q109.521-34.0332 109.521-35.2539Q109.521-36.5234 109.033-37.7686Q108.545-39.0137 107.373-40.2344L95.459-52.6855Q93.9453-54.1992 91.9922-54.1992Q89.8438-54.1992 88.501-52.6123Q87.1582-51.0254 87.1582-49.1699Q87.1582-46.9238 88.8184-45.3613L92.2852-42.0898L95.6055-40.7227L90.1367-41.2598L55.1758-41.2598Q52.7832-41.2598 51.001-39.5508Q49.2188-37.8418 49.2188-35.2539Q49.2188-32.7148 51.001-30.9814Q52.7832-29.248 55.1758-29.248Z"/>
  </g>
  <g id="Heavy-S" transform="matrix(1 0 0 1 2578.2 696)">
   <path d="M24.297 7.62417L65.4843 7.62417Q72.42 7.62417 76.2236 3.81482Q80.0272 0.00546043 80.0272-6.95331L80.0272-22.2356L67.5381-22.2356L67.5381-8.69232Q67.5381-6.80168 66.6443-5.82755Q65.7505-4.85341 63.6877-4.85341L26.1052-4.85341Q24.0681-4.85341 23.1556-5.82755Q22.2432-6.80168 22.2432-8.69232L22.2432-61.7409Q22.2432-63.6689 23.1556-64.6243Q24.0681-65.5798 26.1052-65.5798L63.6877-65.5798Q65.7505-65.5798 66.6443-64.6243Q67.5381-63.6689 67.5381-61.7409L67.5381-47.9738L80.0272-47.9738L80.0272-63.4799Q80.0272-70.4271 76.2236-74.2422Q72.42-78.0574 65.4843-78.0574L24.297-78.0574Q17.3613-78.0574 13.5634-74.2422Q9.76562-70.4271 9.76562-63.4799L9.76562-6.95331Q9.76562 0.00546043 13.5634 3.81482Q17.3613 7.62417 24.297 7.62417ZM53.0784-29.8473L88.7883-29.8473L94.3378-30.3268L91.2826-28.7868L87.2626-25.0197Q85.7522-23.6186 85.7522-21.5569Q85.7522-19.8166 86.9798-18.391Q88.2073-16.9655 90.1598-16.9655Q91.9516-16.9655 93.35-18.3639L105.299-30.8496Q106.355-31.9436 106.786-33.0518Q107.216-34.16 107.216-35.2539Q107.216-36.3851 106.786-37.4747Q106.355-38.5642 105.299-39.6582L93.35-52.1439Q91.9516-53.5423 90.1598-53.5423Q88.2073-53.5423 86.9798-52.1225Q85.7522-50.7027 85.7522-48.9625Q85.7522-46.8892 87.2626-45.4881L91.2826-41.721L94.3493-40.181L88.7883-40.6605L53.0784-40.6605Q50.9278-40.6605 49.3299-39.1129Q47.7321-37.5652 47.7321-35.2539Q47.7321-32.9799 49.3299-31.4136Q50.9278-29.8473 53.0784-29.8473Z"/>
  </g>
  <g id="Bold-S" transform="matrix(1 0 0 1 2282.78 696)">
   <path d="M23.5108 7.03125L64.4531 7.03125Q71.1181 7.03125 74.6704 3.4668Q78.2227-0.0976564 78.2227-6.81152L78.2227-22.8028L67.6026-22.8028L67.6026-7.9834Q67.6026-5.83497 66.5283-4.69971Q65.4541-3.56446 63.1592-3.56446L24.8291-3.56446Q22.5342-3.56446 21.4478-4.69971Q20.3614-5.83497 20.3614-7.9834L20.3614-62.4756Q20.3614-64.6485 21.4478-65.7715Q22.5342-66.8946 24.8291-66.8946L63.1592-66.8946Q65.4541-66.8946 66.5283-65.7715Q67.6026-64.6485 67.6026-62.4756L67.6026-47.5098L78.2227-47.5098L78.2227-63.6474Q78.2227-70.3369 74.6704-73.9135Q71.1181-77.4902 64.4531-77.4902L23.5108-77.4902Q16.8457-77.4902 13.3057-73.9135Q9.76562-70.3369 9.76562-63.6474L9.76562-6.81152Q9.76562-0.0976564 13.3057 3.4668Q16.8457 7.03125 23.5108 7.03125ZM50.7324-30.5176L87.2803-30.5176L92.92-30.9327L90.1611-29.1993L85.5225-24.8779Q84.1797-23.6572 84.1797-21.8017Q84.1797-20.1904 85.2784-18.9453Q86.377-17.7002 88.1104-17.7002Q89.7216-17.7002 90.9912-18.9698L102.979-31.4941Q103.906-32.4463 104.272-33.3741Q104.638-34.3017 104.638-35.2539Q104.638-36.2305 104.272-37.146Q103.906-38.0616 102.979-39.0137L90.9912-51.538Q89.7216-52.8076 88.1104-52.8076Q86.377-52.8076 85.2784-51.5747Q84.1797-50.3418 84.1797-48.7304Q84.1797-46.8505 85.5225-45.6299L90.1611-41.3085L92.9444-39.5752L87.2803-39.9903L50.7324-39.9903Q48.8525-39.9903 47.461-38.623Q46.0694-37.2559 46.0694-35.2539Q46.0694-33.2763 47.461-31.897Q48.8525-30.5176 50.7324-30.5176Z"/>
  </g>
  <g id="Semibold-S" transform="matrix(1 0 0 1 1986.95 696)">
   <path d="M22.9687 6.62246L63.7422 6.62246Q70.2206 6.62246 73.5995 3.22686Q76.9785-0.16875 76.9785-6.71377L76.9785-23.1938L67.647-23.1938L67.647-7.49462Q67.647-5.16846 66.4483-3.92212Q65.2497-2.67578 62.7948-2.67578L23.9493-2.67578Q21.4767-2.67578 20.2703-3.92212Q19.0639-5.16846 19.0639-7.49462L19.0639-62.9821Q19.0639-65.3238 20.2703-66.5624Q21.4767-67.801 23.9493-67.801L62.7948-67.801Q65.2497-67.801 66.4483-66.5624Q67.647-65.3238 67.647-62.9821L67.647-47.1899L76.9785-47.1899L76.9785-63.763Q76.9785-70.2747 73.5995-73.6869Q70.2206-77.0992 63.7422-77.0992L22.9687-77.0992Q16.4902-77.0992 13.1279-73.6869Q9.76562-70.2747 9.76562-63.763L9.76562-6.71377Q9.76562-0.16875 13.1279 3.22686Q16.4902 6.62246 22.9687 6.62246ZM49.1151-30.9797L86.2405-30.9797L91.9424-31.3503L89.388-29.4836L84.3228-24.7802Q83.0955-23.6839 83.0955-21.9706Q83.0955-20.4481 84.1053-19.3274Q85.1151-18.2067 86.6974-18.2067Q88.1842-18.2067 89.3649-19.3874L101.379-31.9384Q102.218-32.7928 102.539-33.5962Q102.861-34.3995 102.861-35.2539Q102.861-36.1238 102.539-36.9194Q102.218-37.715 101.379-38.5694L89.3649-51.1204Q88.1842-52.3011 86.6974-52.3011Q85.1151-52.3011 84.1053-51.197Q83.0955-50.093 83.0955-48.5705Q83.0955-46.8239 84.3228-45.7276L89.388-41.0242L91.9757-39.1575L86.2405-39.5281L49.1151-39.5281Q47.4218-39.5281 46.1724-38.2853Q44.923-37.0426 44.923-35.2539Q44.923-33.4808 46.1724-32.2302Q47.4218-30.9797 49.1151-30.9797Z"/>
  </g>
  <g id="Medium-S" transform="matrix(1 0 0 1 1690.91 696)">
   <path d="M22.5576 6.3125L63.2031 6.3125Q69.54 6.3125 72.7876 3.04492Q76.0352-0.222656 76.0352-6.63965L76.0352-23.4903L67.6807-23.4903L67.6807-7.12402Q67.6807-4.66309 66.3877-3.33252Q65.0947-2.00196 62.5186-2.00196L23.2822-2.00196Q20.6748-2.00196 19.3774-3.33252Q18.0801-4.66309 18.0801-7.12402L18.0801-63.3662Q18.0801-65.8359 19.3774-67.1621Q20.6748-68.4883 23.2822-68.4883L62.5186-68.4883Q65.0947-68.4883 66.3877-67.1621Q67.6807-65.8359 67.6807-63.3662L67.6807-46.9473L76.0352-46.9473L76.0352-63.8506Q76.0352-70.2275 72.7876-73.5151Q69.54-76.8027 63.2031-76.8027L22.5576-76.8027Q16.2207-76.8027 12.9932-73.5151Q9.76562-70.2275 9.76562-63.8506L9.76562-6.63965Q9.76562-0.222656 12.9932 3.04492Q16.2207 6.3125 22.5576 6.3125ZM47.8887-31.3301L85.4521-31.3301L91.2012-31.667L88.8018-29.6993L83.4131-24.7061Q82.2735-23.7041 82.2735-22.0986Q82.2735-20.6435 83.2159-19.6172Q84.1582-18.5908 85.626-18.5908Q87.0185-18.5908 88.1318-19.7041L100.166-32.2753Q100.938-33.0556 101.226-33.7647Q101.514-34.4736 101.514-35.2539Q101.514-36.043 101.226-36.7475Q100.938-37.4522 100.166-38.2325L88.1318-50.8037Q87.0185-51.917 85.626-51.917Q84.1582-51.917 83.2159-50.9106Q82.2735-49.9043 82.2735-48.4492Q82.2735-46.8037 83.4131-45.8017L88.8018-40.8085L91.2412-38.8408L85.4521-39.1777L47.8887-39.1777Q46.3369-39.1777 45.1953-38.0293Q44.0537-36.8808 44.0537-35.2539Q44.0537-33.6357 45.1953-32.4829Q46.3369-31.3301 47.8887-31.3301Z"/>
  </g>
  <g id="Regular-S" transform="matrix(1 0 0 1 1395.08 696)">
   <path d="M22.0215 5.9082L62.5 5.9082Q68.6523 5.9082 71.7285 2.80762Q74.8047-0.292969 74.8047-6.54297L74.8047-23.877L67.7246-23.877L67.7246-6.64062Q67.7246-4.00391 66.3086-2.56348Q64.8926-1.12305 62.1582-1.12305L22.4121-1.12305Q19.6289-1.12305 18.2129-2.56348Q16.7969-4.00391 16.7969-6.64062L16.7969-63.8672Q16.7969-66.5039 18.2129-67.9443Q19.6289-69.3848 22.4121-69.3848L62.1582-69.3848Q64.8926-69.3848 66.3086-67.9443Q67.7246-66.5039 67.7246-63.8672L67.7246-46.6309L74.8047-46.6309L74.8047-63.9648Q74.8047-70.166 71.7285-73.291Q68.6523-76.416 62.5-76.416L22.0215-76.416Q15.8691-76.416 12.8174-73.291Q9.76562-70.166 9.76562-63.9648L9.76562-6.54297Q9.76562-0.292969 12.8174 2.80762Q15.8691 5.9082 22.0215 5.9082ZM46.2891-31.7871L84.4238-31.7871L90.2344-32.0801L88.0371-29.9805L82.2266-24.6094Q81.2012-23.7305 81.2012-22.2656Q81.2012-20.8984 82.0557-19.9951Q82.9102-19.0918 84.2285-19.0918Q85.498-19.0918 86.5234-20.1172L98.584-32.7148Q99.2676-33.3984 99.5117-33.9844Q99.7559-34.5703 99.7559-35.2539Q99.7559-35.9375 99.5117-36.5234Q99.2676-37.1094 98.584-37.793L86.5234-50.3906Q85.498-51.416 84.2285-51.416Q82.9102-51.416 82.0557-50.5371Q81.2012-49.6582 81.2012-48.291Q81.2012-46.7773 82.2266-45.8984L88.0371-40.5273L90.2832-38.4277L84.4238-38.7207L46.2891-38.7207Q44.9219-38.7207 43.9209-37.6953Q42.9199-36.6699 42.9199-35.2539Q42.9199-33.8379 43.9209-32.8125Q44.9219-31.7871 46.2891-31.7871Z"/>
  </g>
  <g id="Light-S" transform="matrix(1 0 0 1 1099.46 696)">
   <path d="M21.2647 5.66609L62.0308 5.66609Q67.7744 5.66609 70.6689 2.74709Q73.5634-0.171916 73.5634-5.96771L73.5634-24.0586L68.1183-24.0586L68.1183-6.06537Q68.1183-3.01997 66.5054-1.39033Q64.8926 0.239307 61.7645 0.239307L21.5645 0.239307Q18.4029 0.239307 16.7976-1.39033Q15.1924-3.01997 15.1924-6.06537L15.1924-64.3819Q15.1924-67.4273 16.7976-69.0569Q18.4029-70.6866 21.5645-70.6866L61.7645-70.6866Q64.8926-70.6866 66.5054-69.0569Q68.1183-67.4273 68.1183-64.3819L68.1183-46.419L73.5634-46.419L73.5634-64.4795Q73.5634-70.2418 70.6689-73.1776Q67.7744-76.1134 62.0308-76.1134L21.2647-76.1134Q15.5362-76.1134 12.6509-73.1776Q9.76562-70.2418 9.76562-64.4795L9.76562-5.96771Q9.76562-0.171916 12.6509 2.74709Q15.5362 5.66609 21.2647 5.66609ZM44.2002-32.5742L84.4693-32.5742L90.0981-32.7914L86.9776-29.7686L80.5313-23.6104Q79.7178-22.8979 79.7178-21.7661Q79.7178-20.7318 80.3907-20.0254Q81.0636-19.3189 82.0791-19.3189Q83.0459-19.3189 83.8442-20.1172L96.6769-33.3051Q97.1939-33.8224 97.385-34.272Q97.5762-34.7216 97.5762-35.2539Q97.5762-35.7862 97.385-36.2358Q97.1939-36.6855 96.6769-37.2027L83.8442-50.4059Q83.0459-51.2042 82.0791-51.2042Q81.0636-51.2042 80.3907-50.522Q79.7178-49.8398 79.7178-48.7905Q79.7178-47.6249 80.5313-46.9126L86.9776-40.7544L90.1469-37.7164L84.4693-37.9336L44.2002-37.9336Q43.1359-37.9336 42.3618-37.1428Q41.5878-36.352 41.5878-35.2539Q41.5878-34.1558 42.3618-33.365Q43.1359-32.5742 44.2002-32.5742Z"/>
  </g>
  <g id="Thin-S" transform="matrix(1 0 0 1 804.192 696)">
   <path d="M20.2637 5.34589L61.4102 5.34589Q66.6134 5.34589 69.2675 2.66704Q71.9217-0.0118133 71.9217-5.20689L71.9217-24.2987L68.6389-24.2987L68.6389-5.30455Q68.6389-1.71863 66.7658 0.16125Q64.8926 2.04113 61.2439 2.04113L20.4434 2.04113Q16.7813 2.04113 14.9258 0.16125Q13.0704-1.71863 13.0704-5.30455L13.0704-65.0627Q13.0704-68.6486 14.9258-70.5285Q16.7813-72.4084 20.4434-72.4084L61.2439-72.4084Q64.8926-72.4084 66.7658-70.5285Q68.6389-68.6486 68.6389-65.0627L68.6389-46.1388L71.9217-46.1388L71.9217-65.1603Q71.9217-70.3421 69.2675-73.0275Q66.6134-75.7131 61.4102-75.7131L20.2637-75.7131Q15.096-75.7131 12.4308-73.0275Q9.76562-70.3421 9.76562-65.1603L9.76562-5.20689Q9.76562-0.0118133 12.4308 2.66704Q15.096 5.34589 20.2637 5.34589ZM41.4374-33.6152L84.5296-33.6152L89.9178-33.7322L85.5764-29.4884L78.2892-22.2892Q77.7558-21.7966 77.7558-21.1055Q77.7558-20.5115 78.1886-20.0654Q78.6214-19.6193 79.2363-19.6193Q79.8029-19.6193 80.3008-20.1172L94.1546-34.0857Q94.4513-34.3831 94.5723-34.6525Q94.6933-34.9218 94.6933-35.2539Q94.6933-35.5861 94.5723-35.8554Q94.4513-36.1248 94.1546-36.4221L80.3008-50.4261Q79.8029-50.924 79.2363-50.924Q78.6214-50.924 78.1886-50.502Q77.7558-50.0799 77.7558-49.4511Q77.7558-48.746 78.2892-48.254L85.5764-41.0548L89.9666-36.7756L84.5296-36.8926L41.4374-36.8926Q40.7737-36.8926 40.2998-36.4121Q39.826-35.9316 39.826-35.2539Q39.826-34.5762 40.2998-34.0957Q40.7737-33.6152 41.4374-33.6152Z"/>
  </g>
  <g id="Ultralight-S" transform="matrix(1 0 0 1 508.22 696)">
   <path d="M19.751 5.18188L61.0924 5.18188Q66.0187 5.18188 68.5497 2.62604Q71.0808 0.0701904 71.0808-4.8172L71.0808-24.4217L68.9056-24.4217L68.9056-4.91486Q68.9056-1.05209 66.8991 0.955963Q64.8926 2.96402 60.9772 2.96402L19.8692 2.96402Q15.9508 2.96402 13.9671 0.955963Q11.9835-1.05209 11.9835-4.91486L11.9835-65.4114Q11.9835-69.2741 13.9671-71.2822Q15.9508-73.2903 19.8692-73.2903L60.9772-73.2903Q64.8926-73.2903 66.8991-71.2822Q68.9056-69.2741 68.9056-65.4114L68.9056-45.9953L71.0808-45.9953L71.0808-65.509Q71.0808-70.3934 68.5497-72.9507Q66.0187-75.5081 61.0924-75.5081L19.751-75.5081Q14.8705-75.5081 12.318-72.9507Q9.76562-70.3934 9.76562-65.509L9.76562-4.8172Q9.76562 0.0701904 12.318 2.62604Q14.8705 5.18188 19.751 5.18188ZM40.0223-34.1484L84.5604-34.1484L89.8254-34.214L84.8587-29.3449L77.1408-21.6125Q76.7509-21.2326 76.7509-20.7672Q76.7509-20.3987 77.0607-20.0859Q77.3705-19.7731 77.7802-19.7731Q78.1418-19.7731 78.4859-20.1172L92.8627-34.4856Q93.0466-34.6703 93.1316-34.8473Q93.2167-35.0243 93.2167-35.2539Q93.2167-35.4836 93.1316-35.6606Q93.0466-35.8376 92.8627-36.0222L78.4859-50.4364Q78.1418-50.7805 77.7802-50.7805Q77.3705-50.7805 77.0607-50.4917Q76.7509-50.2029 76.7509-49.7894Q76.7509-49.3202 77.1408-48.941L84.8587-41.2086L89.8743-36.2938L84.5604-36.3594L40.0223-36.3594Q39.5638-36.3594 39.2437-36.0378Q38.9236-35.7162 38.9236-35.2539Q38.9236-34.7916 39.2437-34.47Q39.5638-34.1484 40.0223-34.1484Z"/>
  </g>
 </g>
</svg>
