<?xml version="1.0" encoding="UTF-8"?>
<!--Generator: Apple Native CoreSVG 175-->
<!DOCTYPE svg
PUBLIC "-//W3C//DTD SVG 1.1//EN"
       "http://www.w3.org/Graphics/SVG/1.1/DTD/svg11.dtd">
<svg version="1.1" xmlns="http://www.w3.org/2000/svg" xmlns:xlink="http://www.w3.org/1999/xlink" width="3300" height="2200">
 <!--glyph: "", point size: 100.0, font version: "17.0d12e1", template writer version: "65.1"-->
 <g id="Notes">
  <rect height="2200" id="artboard" style="fill:white;opacity:1" width="3300" x="0" y="0"/>
  <line style="fill:none;stroke:black;opacity:1;stroke-width:0.5;" x1="263" x2="3036" y1="292" y2="292"/>
  <text style="stroke:none;fill:black;font-family:sans-serif;font-size:13;font-weight:bold;" transform="matrix(1 0 0 1 263 322)">Weight/Scale Variations</text>
  <text style="stroke:none;fill:black;font-family:sans-serif;font-size:13;text-anchor:middle;" transform="matrix(1 0 0 1 559.711 322)">Ultralight</text>
  <text style="stroke:none;fill:black;font-family:sans-serif;font-size:13;text-anchor:middle;" transform="matrix(1 0 0 1 856.422 322)">Thin</text>
  <text style="stroke:none;fill:black;font-family:sans-serif;font-size:13;text-anchor:middle;" transform="matrix(1 0 0 1 1153.13 322)">Light</text>
  <text style="stroke:none;fill:black;font-family:sans-serif;font-size:13;text-anchor:middle;" transform="matrix(1 0 0 1 1449.84 322)">Regular</text>
  <text style="stroke:none;fill:black;font-family:sans-serif;font-size:13;text-anchor:middle;" transform="matrix(1 0 0 1 1746.56 322)">Medium</text>
  <text style="stroke:none;fill:black;font-family:sans-serif;font-size:13;text-anchor:middle;" transform="matrix(1 0 0 1 2043.27 322)">Semibold</text>
  <text style="stroke:none;fill:black;font-family:sans-serif;font-size:13;text-anchor:middle;" transform="matrix(1 0 0 1 2339.98 322)">Bold</text>
  <text style="stroke:none;fill:black;font-family:sans-serif;font-size:13;text-anchor:middle;" transform="matrix(1 0 0 1 2636.69 322)">Heavy</text>
  <text style="stroke:none;fill:black;font-family:sans-serif;font-size:13;text-anchor:middle;" transform="matrix(1 0 0 1 2933.4 322)">Black</text>
  <line style="fill:none;stroke:black;opacity:1;stroke-width:0.5;" x1="263" x2="3036" y1="1903" y2="1903"/>
  <g transform="matrix(1 0 0 1 263 1933)">
   <path d="M9.24805 0.830078Q10.8691 0.830078 12.2949 0.214844Q13.7207-0.400391 14.8096-1.49414Q15.8984-2.58789 16.5186-4.01367Q17.1387-5.43945 17.1387-7.05078Q17.1387-8.66211 16.5186-10.0879Q15.8984-11.5137 14.8047-12.6074Q13.7109-13.7012 12.2852-14.3164Q10.8594-14.9316 9.23828-14.9316Q7.62695-14.9316 6.20117-14.3164Q4.77539-13.7012 3.69141-12.6074Q2.60742-11.5137 1.9873-10.0879Q1.36719-8.66211 1.36719-7.05078Q1.36719-5.43945 1.9873-4.01367Q2.60742-2.58789 3.69629-1.49414Q4.78516-0.400391 6.21094 0.214844Q7.63672 0.830078 9.24805 0.830078ZM9.24805-0.654297Q7.91992-0.654297 6.7627-1.14746Q5.60547-1.64062 4.73145-2.51953Q3.85742-3.39844 3.36426-4.56055Q2.87109-5.72266 2.87109-7.05078Q2.87109-8.37891 3.35938-9.54102Q3.84766-10.7031 4.72168-11.582Q5.5957-12.4609 6.75293-12.9541Q7.91016-13.4473 9.23828-13.4473Q10.5762-13.4473 11.7334-12.9541Q12.8906-12.4609 13.7695-11.582Q14.6484-10.7031 15.1465-9.54102Q15.6445-8.37891 15.6445-7.05078Q15.6445-5.72266 15.1514-4.56055Q14.6582-3.39844 13.7842-2.51953Q12.9102-1.64062 11.748-1.14746Q10.5859-0.654297 9.24805-0.654297ZM5.6543-7.05078Q5.6543-6.72852 5.85938-6.52832Q6.06445-6.32812 6.40625-6.32812L8.51562-6.32812L8.51562-4.20898Q8.51562-3.88672 8.71094-3.67676Q8.90625-3.4668 9.23828-3.4668Q9.56055-3.4668 9.77051-3.67676Q9.98047-3.88672 9.98047-4.20898L9.98047-6.32812L12.0898-6.32812Q12.4219-6.32812 12.627-6.52832Q12.832-6.72852 12.832-7.05078Q12.832-7.38281 12.627-7.58789Q12.4219-7.79297 12.0898-7.79297L9.98047-7.79297L9.98047-9.90234Q9.98047-10.2344 9.77051-10.4443Q9.56055-10.6543 9.23828-10.6543Q8.90625-10.6543 8.71094-10.4443Q8.51562-10.2344 8.51562-9.90234L8.51562-7.79297L6.40625-7.79297Q6.06445-7.79297 5.85938-7.58789Q5.6543-7.38281 5.6543-7.05078Z"/>
  </g>
  <g transform="matrix(1 0 0 1 281.867 1933)">
   <path d="M11.709 2.91016Q13.75 2.91016 15.5518 2.12891Q17.3535 1.34766 18.7305-0.0292969Q20.1074-1.40625 20.8887-3.20801Q21.6699-5.00977 21.6699-7.05078Q21.6699-9.0918 20.8887-10.8936Q20.1074-12.6953 18.7305-14.0723Q17.3535-15.4492 15.5469-16.2305Q13.7402-17.0117 11.6992-17.0117Q9.6582-17.0117 7.85645-16.2305Q6.05469-15.4492 4.68262-14.0723Q3.31055-12.6953 2.5293-10.8936Q1.74805-9.0918 1.74805-7.05078Q1.74805-5.00977 2.5293-3.20801Q3.31055-1.40625 4.6875-0.0292969Q6.06445 1.34766 7.86621 2.12891Q9.66797 2.91016 11.709 2.91016ZM11.709 1.25Q9.98047 1.25 8.47656 0.605469Q6.97266-0.0390625 5.83496-1.17676Q4.69727-2.31445 4.05762-3.81836Q3.41797-5.32227 3.41797-7.05078Q3.41797-8.7793 4.05762-10.2832Q4.69727-11.7871 5.83008-12.9297Q6.96289-14.0723 8.4668-14.7119Q9.9707-15.3516 11.6992-15.3516Q13.4277-15.3516 14.9316-14.7119Q16.4355-14.0723 17.5781-12.9297Q18.7207-11.7871 19.3652-10.2832Q20.0098-8.7793 20.0098-7.05078Q20.0098-5.32227 19.3701-3.81836Q18.7305-2.31445 17.5928-1.17676Q16.4551-0.0390625 14.9463 0.605469Q13.4375 1.25 11.709 1.25ZM7.17773-7.05078Q7.17773-6.69922 7.41211-6.47461Q7.64648-6.25 8.01758-6.25L10.8887-6.25L10.8887-3.36914Q10.8887-2.99805 11.1133-2.76855Q11.3379-2.53906 11.6895-2.53906Q12.0605-2.53906 12.29-2.76855Q12.5195-2.99805 12.5195-3.36914L12.5195-6.25L15.4004-6.25Q15.7715-6.25 16.001-6.47461Q16.2305-6.69922 16.2305-7.05078Q16.2305-7.42188 16.001-7.65137Q15.7715-7.88086 15.4004-7.88086L12.5195-7.88086L12.5195-10.752Q12.5195-11.1328 12.29-11.3623Q12.0605-11.5918 11.6895-11.5918Q11.3379-11.5918 11.1133-11.3574Q10.8887-11.123 10.8887-10.752L10.8887-7.88086L8.01758-7.88086Q7.63672-7.88086 7.40723-7.65137Q7.17773-7.42188 7.17773-7.05078Z"/>
  </g>
  <g transform="matrix(1 0 0 1 305.646 1933)">
   <path d="M14.9707 5.66406Q17.0605 5.66406 18.96 5.01465Q20.8594 4.36523 22.4512 3.19336Q24.043 2.02148 25.2197 0.429688Q26.3965-1.16211 27.0459-3.06641Q27.6953-4.9707 27.6953-7.05078Q27.6953-9.14062 27.0459-11.04Q26.3965-12.9395 25.2197-14.5312Q24.043-16.123 22.4512-17.2998Q20.8594-18.4766 18.9551-19.126Q17.0508-19.7754 14.9609-19.7754Q12.8711-19.7754 10.9717-19.126Q9.07227-18.4766 7.48535-17.2998Q5.89844-16.123 4.72168-14.5312Q3.54492-12.9395 2.90039-11.04Q2.25586-9.14062 2.25586-7.05078Q2.25586-4.9707 2.90527-3.06641Q3.55469-1.16211 4.72656 0.429688Q5.89844 2.02148 7.49023 3.19336Q9.08203 4.36523 10.9814 5.01465Q12.8809 5.66406 14.9707 5.66406ZM14.9707 3.84766Q13.1641 3.84766 11.5283 3.2959Q9.89258 2.74414 8.53516 1.74805Q7.17773 0.751953 6.17676-0.610352Q5.17578-1.97266 4.62891-3.6084Q4.08203-5.24414 4.08203-7.05078Q4.08203-8.86719 4.62891-10.5029Q5.17578-12.1387 6.17188-13.501Q7.16797-14.8633 8.52539-15.8594Q9.88281-16.8555 11.5186-17.4023Q13.1543-17.9492 14.9609-17.9492Q16.7773-17.9492 18.4131-17.4023Q20.0488-16.8555 21.4111-15.8594Q22.7734-14.8633 23.7695-13.501Q24.7656-12.1387 25.3174-10.5029Q25.8691-8.86719 25.8691-7.05078Q25.8789-5.24414 25.332-3.6084Q24.7852-1.97266 23.7842-0.610352Q22.7832 0.751953 21.4209 1.74805Q20.0586 2.74414 18.4229 3.2959Q16.7871 3.84766 14.9707 3.84766ZM9.19922-7.05078Q9.19922-6.66992 9.45801-6.4209Q9.7168-6.17188 10.1172-6.17188L14.0625-6.17188L14.0625-2.2168Q14.0625-1.81641 14.3115-1.55762Q14.5605-1.29883 14.9512-1.29883Q15.3516-1.29883 15.6104-1.55273Q15.8691-1.80664 15.8691-2.2168L15.8691-6.17188L19.8242-6.17188Q20.2246-6.17188 20.4785-6.4209Q20.7324-6.66992 20.7324-7.05078Q20.7324-7.46094 20.4785-7.71484Q20.2246-7.96875 19.8242-7.96875L15.8691-7.96875L15.8691-11.9141Q15.8691-12.3242 15.6104-12.583Q15.3516-12.8418 14.9512-12.8418Q14.5605-12.8418 14.3115-12.583Q14.0625-12.3242 14.0625-11.9141L14.0625-7.96875L10.1172-7.96875Q9.70703-7.96875 9.45312-7.71484Q9.19922-7.46094 9.19922-7.05078Z"/>
  </g>
  <text style="stroke:none;fill:black;font-family:sans-serif;font-size:13;font-weight:bold;" transform="matrix(1 0 0 1 263 1953)">Design Variations</text>
  <text style="stroke:none;fill:black;font-family:sans-serif;font-size:13;" transform="matrix(1 0 0 1 263 1971)">Symbols are supported in up to nine weights and three scales.</text>
  <text style="stroke:none;fill:black;font-family:sans-serif;font-size:13;" transform="matrix(1 0 0 1 263 1989)">For optimal layout with text and other symbols, vertically align</text>
  <text style="stroke:none;fill:black;font-family:sans-serif;font-size:13;" transform="matrix(1 0 0 1 263 2007)">symbols with the adjacent text.</text>
  <line style="fill:none;stroke:#00AEEF;stroke-width:0.5;opacity:1.0;" x1="776" x2="776" y1="1919" y2="1933"/>
  <g transform="matrix(1 0 0 1 776 1933)">
   <path d="M3.31055 0.15625Q3.70117 0.15625 3.91602-0.00976562Q4.13086-0.175781 4.26758-0.585938L5.52734-4.0332L11.2891-4.0332L12.5488-0.585938Q12.6855-0.175781 12.9004-0.00976562Q13.1152 0.15625 13.4961 0.15625Q13.8867 0.15625 14.1162-0.0585938Q14.3457-0.273438 14.3457-0.644531Q14.3457-0.869141 14.2383-1.17188L9.6582-13.3691Q9.48242-13.8184 9.17969-14.043Q8.87695-14.2676 8.4082-14.2676Q7.5-14.2676 7.17773-13.3789L2.59766-1.16211Q2.49023-0.859375 2.49023-0.634766Q2.49023-0.263672 2.70996-0.0537109Q2.92969 0.15625 3.31055 0.15625ZM6.00586-5.51758L8.37891-12.0898L8.42773-12.0898L10.8008-5.51758Z"/>
  </g>
  <line style="fill:none;stroke:#00AEEF;stroke-width:0.5;opacity:1.0;" x1="793.197" x2="793.197" y1="1919" y2="1933"/>
  <text style="stroke:none;fill:black;font-family:sans-serif;font-size:13;font-weight:bold;" transform="matrix(1 0 0 1 776 1953)">Margins</text>
  <text style="stroke:none;fill:black;font-family:sans-serif;font-size:13;" transform="matrix(1 0 0 1 776 1971)">Leading and trailing margins on the left and right side of each symbol</text>
  <text style="stroke:none;fill:black;font-family:sans-serif;font-size:13;" transform="matrix(1 0 0 1 776 1989)">can be adjusted by modifying the x-location of the margin guidelines.</text>
  <text style="stroke:none;fill:black;font-family:sans-serif;font-size:13;" transform="matrix(1 0 0 1 776 2007)">Modifications are automatically applied proportionally to all</text>
  <text style="stroke:none;fill:black;font-family:sans-serif;font-size:13;" transform="matrix(1 0 0 1 776 2025)">scales and weights.</text>
  <g transform="matrix(1 0 0 1 1289 1933)">
   <path d="M2.8418 1.86523L4.54102 3.57422Q5.18555 4.22852 5.90332 4.17969Q6.62109 4.13086 7.31445 3.35938L18.0078-8.42773L17.041-9.4043L6.42578 2.27539Q6.16211 2.57812 5.89355 2.61719Q5.625 2.65625 5.27344 2.30469L4.10156 1.14258Q3.75 0.791016 3.79395 0.522461Q3.83789 0.253906 4.14062-0.0195312L15.6152-10.8203L14.6387-11.7871L3.04688-0.898438Q2.30469-0.214844 2.25098 0.498047Q2.19727 1.21094 2.8418 1.86523ZM9.25781-16.3281Q8.94531-16.0254 8.90625-15.6348Q8.86719-15.2441 9.04297-14.9512Q9.21875-14.6777 9.55566-14.541Q9.89258-14.4043 10.3809-14.5215Q11.4746-14.7754 12.5977-14.7314Q13.7207-14.6875 14.7949-13.9844L14.209-12.5293Q13.9551-11.9043 14.0674-11.4404Q14.1797-10.9766 14.5801-10.5664L16.875-8.25195Q17.2363-7.88086 17.5781-7.82227Q17.9199-7.76367 18.3398-7.8418L19.4043-8.03711L20.0684-7.36328L20.0293-6.80664Q20-6.43555 20.1221-6.12305Q20.2441-5.81055 20.6055-5.44922L21.3672-4.70703Q21.7285-4.3457 22.1533-4.33105Q22.5781-4.31641 22.9297-4.66797L25.8398-7.58789Q26.1914-7.93945 26.1816-8.35449Q26.1719-8.76953 25.8105-9.13086L25.0391-9.89258Q24.6875-10.2539 24.3799-10.3857Q24.0723-10.5176 23.7109-10.4883L23.1348-10.4395L22.4902-11.0742L22.7344-12.1973Q22.832-12.6172 22.6953-12.9834Q22.5586-13.3496 22.1191-13.7891L19.9219-15.9766Q18.6719-17.2168 17.2607-17.8369Q15.8496-18.457 14.4189-18.4814Q12.9883-18.5059 11.665-17.959Q10.3418-17.4121 9.25781-16.3281ZM10.752-15.957Q11.6602-16.6211 12.7002-16.9043Q13.7402-17.1875 14.8047-17.085Q15.8691-16.9824 16.8701-16.5137Q17.8711-16.0449 18.7012-15.2051L21.1328-12.793Q21.3086-12.6172 21.3525-12.4512Q21.3965-12.2852 21.3379-12.0312L21.0156-10.5469L22.5195-9.0625L23.5059-9.12109Q23.6914-9.13086 23.7891-9.09668Q23.8867-9.0625 24.0332-8.91602L24.6094-8.33984L22.168-5.89844L21.5918-6.47461Q21.4453-6.62109 21.4062-6.71875Q21.3672-6.81641 21.377-7.01172L21.4453-7.98828L19.9512-9.47266L18.4277-9.21875Q18.1836-9.16992 18.042-9.2041Q17.9004-9.23828 17.7148-9.41406L15.7129-11.416Q15.5176-11.5918 15.4932-11.7529Q15.4688-11.9141 15.5859-12.1875L16.4648-14.2773Q15.293-15.3711 13.8281-15.791Q12.3633-16.2109 10.8398-15.7617Q10.7227-15.7324 10.6885-15.8057Q10.6543-15.8789 10.752-15.957Z"/>
  </g>
  <text style="stroke:none;fill:black;font-family:sans-serif;font-size:13;font-weight:bold;" transform="matrix(1 0 0 1 1289 1953)">Exporting</text>
  <text style="stroke:none;fill:black;font-family:sans-serif;font-size:13;" transform="matrix(1 0 0 1 1289 1971)">Symbols should be outlined when exporting to ensure the</text>
  <text style="stroke:none;fill:black;font-family:sans-serif;font-size:13;" transform="matrix(1 0 0 1 1289 1989)">design is preserved when submitting to Xcode.</text>
  <text id="template-version" style="stroke:none;fill:black;font-family:sans-serif;font-size:13;text-anchor:end;" transform="matrix(1 0 0 1 3036 1933)">Template v.3.0</text>
  <text style="stroke:none;fill:black;font-family:sans-serif;font-size:13;text-anchor:end;" transform="matrix(1 0 0 1 3036 1951)">Requires Xcode 13 or greater</text>
  <text id="descriptive-name" style="stroke:none;fill:black;font-family:sans-serif;font-size:13;text-anchor:end;" transform="matrix(1 0 0 1 3036 1969)">Generated from info.symbol</text>
  <text style="stroke:none;fill:black;font-family:sans-serif;font-size:13;text-anchor:end;" transform="matrix(1 0 0 1 3036 1987)">Typeset at 100 points</text>
  <text style="stroke:none;fill:black;font-family:sans-serif;font-size:13;" transform="matrix(1 0 0 1 263 726)">Small</text>
  <text style="stroke:none;fill:black;font-family:sans-serif;font-size:13;" transform="matrix(1 0 0 1 263 1156)">Medium</text>
  <text style="stroke:none;fill:black;font-family:sans-serif;font-size:13;" transform="matrix(1 0 0 1 263 1586)">Large</text>
 </g>
 <g id="Guides">
  <g id="H-reference" style="fill:#27AAE1;stroke:none;" transform="matrix(1 0 0 1 339 696)">
   <path d="M0.993347 0L3.6377 0L29.3282-67.1326L30.0301-67.1326L30.0301-70.459L28.1227-70.459ZM11.6882-24.4797L46.9818-24.4797L46.2311-26.7288L12.4382-26.7288ZM55.1193 0L57.7637 0L30.6381-70.459L29.4327-70.459L29.4327-67.1326Z"/>
  </g>
  <line id="Baseline-S" style="fill:none;stroke:#27AAE1;opacity:1;stroke-width:0.5;" x1="263" x2="3036" y1="696" y2="696"/>
  <line id="Capline-S" style="fill:none;stroke:#27AAE1;opacity:1;stroke-width:0.5;" x1="263" x2="3036" y1="625.541" y2="625.541"/>
  <g id="H-reference" style="fill:#27AAE1;stroke:none;" transform="matrix(1 0 0 1 339 1126)">
   <path d="M0.993347 0L3.6377 0L29.3282-67.1326L30.0301-67.1326L30.0301-70.459L28.1227-70.459ZM11.6882-24.4797L46.9818-24.4797L46.2311-26.7288L12.4382-26.7288ZM55.1193 0L57.7637 0L30.6381-70.459L29.4327-70.459L29.4327-67.1326Z"/>
  </g>
  <line id="Baseline-M" style="fill:none;stroke:#27AAE1;opacity:1;stroke-width:0.5;" x1="263" x2="3036" y1="1126" y2="1126"/>
  <line id="Capline-M" style="fill:none;stroke:#27AAE1;opacity:1;stroke-width:0.5;" x1="263" x2="3036" y1="1055.54" y2="1055.54"/>
  <g id="H-reference" style="fill:#27AAE1;stroke:none;" transform="matrix(1 0 0 1 339 1556)">
   <path d="M0.993347 0L3.6377 0L29.3282-67.1326L30.0301-67.1326L30.0301-70.459L28.1227-70.459ZM11.6882-24.4797L46.9818-24.4797L46.2311-26.7288L12.4382-26.7288ZM55.1193 0L57.7637 0L30.6381-70.459L29.4327-70.459L29.4327-67.1326Z"/>
  </g>
  <line id="Baseline-L" style="fill:none;stroke:#27AAE1;opacity:1;stroke-width:0.5;" x1="263" x2="3036" y1="1556" y2="1556"/>
  <line id="Capline-L" style="fill:none;stroke:#27AAE1;opacity:1;stroke-width:0.5;" x1="263" x2="3036" y1="1485.54" y2="1485.54"/>
  <line id="left-margin-Regular-M" style="fill:none;stroke:#00AEEF;stroke-width:0.5;opacity:1.0;" x1="1391.32" x2="1391.32" y1="1030.78" y2="1150.12"/>
  <line id="right-margin-Regular-M" style="fill:none;stroke:#00AEEF;stroke-width:0.5;opacity:1.0;" x1="1508.37" x2="1508.37" y1="1030.78" y2="1150.12"/>
 </g>
 <g id="Symbols">
  <g id="Black-L" transform="matrix(1 0 0 1 2854.19 1556)">
   <path d="M79.1953 32.7256Q93.2356 32.7256 105.521 27.4306Q117.806 22.1357 127.174 12.7574Q136.542 3.37908 141.848-8.90618Q147.154-21.1914 147.154-35.211Q147.154-49.2305 141.848-61.5158Q136.542-73.801 127.164-83.1794Q117.785-92.5577 105.5-97.8526Q93.2149-103.148 79.1746-103.148Q65.1563-103.148 52.8704-97.8526Q40.5846-92.5577 31.2276-83.1794Q21.8707-73.801 16.5647-61.5158Q11.2588-49.2305 11.2588-35.211Q11.2588-21.1914 16.5647-8.90618Q21.8707 3.37908 31.2379 12.7574Q40.6053 22.1357 52.8911 27.4306Q65.177 32.7256 79.1953 32.7256ZM79.1953 12.578Q69.2941 12.578 60.6257 8.8608Q51.9572 5.14354 45.4197-1.40422Q38.8822-7.95206 35.1643-16.6308Q31.4466-25.3098 31.4466-35.211Q31.4466-45.1122 35.154-53.791Q38.8615-62.4698 45.399-69.0177Q51.9365-75.5655 60.6049-79.2828Q69.2734-82.9999 79.1746-82.9999Q89.0965-82.9999 97.7657-79.2828Q106.435-75.5655 112.982-69.0177Q119.529-62.4698 123.257-53.791Q126.986-45.1122 126.986-35.211Q126.986-25.3098 123.268-16.6308Q119.551-7.95206 113.014-1.40422Q106.476 5.14354 97.7974 8.8608Q89.1185 12.578 79.1953 12.578ZM67.8001-2.2152L93.0309-2.2152Q95.8241-2.2152 97.7047-3.98924Q99.5853-5.7634 99.5853-8.6112Q99.5853-11.2643 97.7047-13.1065Q95.8241-14.9488 93.0309-14.9488L88.6918-14.9488L88.6918-37.3186Q88.6918-41.1341 86.8502-43.3806Q85.0086-45.6269 81.4486-45.6269L69.0519-45.6269Q66.3172-45.6269 64.3971-43.7846Q62.4769-41.9424 62.4769-39.2893Q62.4769-36.4402 64.3971-34.6563Q66.3172-32.8726 69.0519-32.8726L74.2418-32.8726L74.2418-14.9488L67.8001-14.9488Q65.0665-14.9488 63.1458-13.1065Q61.2251-11.2643 61.2251-8.6112Q61.2251-5.7634 63.1458-3.98924Q65.0665-2.2152 67.8001-2.2152ZM79.38-53.1001Q83.4805-53.1001 86.4143-56.0533Q89.3482-59.0066 89.3482-63.0487Q89.3482-67.3245 86.4143-70.2499Q83.4805-73.1752 79.38-73.1752Q75.3377-73.1752 72.365-70.2499Q69.3923-67.3245 69.3923-63.0487Q69.3923-59.0066 72.365-56.0533Q75.3377-53.1001 79.38-53.1001Z"/>
  </g>
  <g id="Heavy-L" transform="matrix(1 0 0 1 2558.42 1556)">
   <path d="M78.251 31.7675Q92.0879 31.7675 104.202 26.5467Q116.316 21.3259 125.559 12.0681Q134.802 2.81022 140.04-9.30372Q145.279-21.4177 145.279-35.2248Q145.279-49.0319 140.04-61.1459Q134.802-73.2597 125.544-82.5176Q116.286-91.7754 104.172-96.9962Q92.0582-102.217 78.2213-102.217Q64.4202-102.217 52.3033-96.9962Q40.1864-91.7754 30.9612-82.5176Q21.7362-73.2597 16.4975-61.1459Q11.2588-49.0319 11.2588-35.2248Q11.2588-21.4177 16.4975-9.30372Q21.7362 2.81022 30.9761 12.0681Q40.2161 21.3259 52.333 26.5467Q64.45 31.7675 78.251 31.7675ZM78.251 14.0255Q68.0447 14.0255 59.1149 10.2019Q50.1851 6.3782 43.4463-0.375371Q36.7076-7.12897 32.8809-16.0736Q29.0543-25.0185 29.0543-35.2248Q29.0543-45.4311 32.866-54.3758Q36.6779-63.3205 43.4166-70.0741Q50.1553-76.8277 59.0851-80.6514Q68.015-84.475 78.2213-84.475Q88.4574-84.475 97.3903-80.6514Q106.323-76.8277 113.074-70.0741Q119.824-63.3205 123.666-54.3758Q127.507-45.4311 127.507-35.2248Q127.507-25.0185 123.684-16.0736Q119.86-7.12897 113.121-0.375371Q106.383 6.3782 97.4379 10.2019Q88.4932 14.0255 78.251 14.0255ZM66.9324-1.85866L92.2744-1.85866Q94.84-1.85866 96.5647-3.49564Q98.2895-5.13271 98.2895-7.72487Q98.2895-10.1594 96.5647-11.8529Q94.84-13.5464 92.2744-13.5464L87.0315-13.5464L87.0315-38.4324Q87.0315-41.9082 85.341-43.9663Q83.6505-46.0242 80.4155-46.0242L68.123-46.0242Q65.602-46.0242 63.8402-44.3307Q62.0782-42.6372 62.0782-40.2026Q62.0782-37.6044 63.8402-35.9555Q65.602-34.3067 68.123-34.3067L73.7817-34.3067L73.7817-13.5464L66.9324-13.5464Q64.4174-13.5464 62.6525-11.8529Q60.8877-10.1594 60.8877-7.72487Q60.8877-5.13271 62.6525-3.49564Q64.4174-1.85866 66.9324-1.85866ZM78.2807-54.2715Q82.1894-54.2715 84.9623-57.0682Q87.7353-59.8649 87.7353-63.7288Q87.7353-67.7714 84.9623-70.5518Q82.1894-73.3323 78.2807-73.3323Q74.4167-73.3323 71.6095-70.5518Q68.8024-67.7714 68.8024-63.7288Q68.8024-59.8649 71.6095-57.0682Q74.4167-54.2715 78.2807-54.2715Z"/>
  </g>
  <g id="Bold-L" transform="matrix(1 0 0 1 2262.89 1556)">
   <path d="M77.0652 30.5663Q90.6516 30.5663 102.549 25.4399Q114.447 20.3136 123.533 11.2092Q132.619 2.1048 137.771-9.79304Q142.923-21.6909 142.923-35.2402Q142.923-48.7895 137.771-60.6874Q132.619-72.5852 123.515-81.6896Q114.41-90.7939 102.512-95.9203Q90.6146-101.047 77.0283-101.047Q63.4932-101.047 51.5882-95.9203Q39.6833-90.7939 30.623-81.6896Q21.5627-72.5852 16.4107-60.6874Q11.2588-48.7895 11.2588-35.2402Q11.2588-21.6909 16.4107-9.79304Q21.5627 2.1048 30.6414 11.2092Q39.7203 20.3136 51.6252 25.4399Q63.5302 30.5663 77.0652 30.5663ZM77.0652 15.8204Q66.4831 15.8204 57.2278 11.8633Q47.9725 7.90613 40.9827 0.897863Q33.9929-6.11037 30.0287-15.3841Q26.0645-24.658 26.0645-35.2402Q26.0645-45.8223 30.0102-55.0961Q33.956-64.3699 40.9457-71.3783Q47.9355-78.3865 57.1908-82.3436Q66.4461-86.3007 77.0283-86.3007Q87.6474-86.3007 96.9099-82.3436Q106.172-78.3865 113.173-71.3783Q120.175-64.3699 124.157-55.0961Q128.14-45.8223 128.14-35.2402Q128.14-24.658 124.183-15.3841Q120.226-6.11037 113.236 0.897863Q106.246 7.90613 96.9724 11.8633Q87.6986 15.8204 77.0652 15.8204ZM65.8035-1.49436L91.2871-1.49436Q93.5521-1.49436 95.0665-2.94923Q96.5809-4.40416 96.5809-6.65567Q96.5809-8.79676 95.0665-10.2922Q93.5521-11.7877 91.2871-11.7877L84.8864-11.7877L84.8864-39.8856Q84.8864-42.9008 83.398-44.7049Q81.9097-46.5089 79.1015-46.5089L66.8967-46.5089Q64.661-46.5089 63.1136-45.0134Q61.566-43.518 61.566-41.3769Q61.566-39.1111 63.1136-37.6448Q64.661-36.1786 66.8967-36.1786L73.2555-36.1786L73.2555-11.7877L65.8035-11.7877Q63.582-11.7877 62.0273-10.2922Q60.4728-8.79676 60.4728-6.65567Q60.4728-4.40416 62.0273-2.94923Q63.582-1.49436 65.8035-1.49436ZM76.9446-55.7488Q80.5723-55.7488 83.1222-58.3215Q85.6721-60.8941 85.6721-64.4926Q85.6721-68.2079 83.1222-70.7803Q80.5723-73.3525 76.9446-73.3525Q73.346-73.3525 70.7701-70.7803Q68.1943-68.2079 68.1943-64.4926Q68.1943-60.8941 70.7701-58.3215Q73.346-55.7488 76.9446-55.7488Z"/>
  </g>
  <g id="Semibold-L" transform="matrix(1 0 0 1 1966.99 1556)">
   <path d="M76.2478 29.7382Q89.6614 29.7382 101.41 24.6769Q113.159 19.6157 122.137 10.6171Q131.114 1.61849 136.206-10.1304Q141.299-21.8792 141.299-35.2508Q141.299-48.6224 136.206-60.3713Q131.114-72.1201 122.116-81.1187Q113.117-90.1173 101.368-95.1785Q89.6194-100.24 76.2058-100.24Q62.8541-100.24 51.0953-95.1785Q39.3366-90.1173 30.3898-81.1187Q21.4431-72.1201 16.351-60.3713Q11.2588-48.6224 11.2588-35.2508Q11.2588-21.8792 16.351-10.1304Q21.4431 1.61849 30.4107 10.6171Q39.3785 19.6157 51.1373 24.6769Q62.896 29.7382 76.2478 29.7382ZM76.2478 17.0578Q65.4065 17.0578 55.9269 13.0086Q46.4471 8.95948 39.2843 1.77562Q32.1215-5.40816 28.0624-14.9088Q24.0033-24.4096 24.0033-35.2508Q24.0033-46.092 28.0414-55.5928Q32.0795-65.0934 39.2423-72.2773Q46.4051-79.4611 55.8848-83.5102Q65.3646-87.5593 76.2058-87.5593Q87.089-87.5593 96.5787-83.5102Q106.068-79.4611 113.242-72.2773Q120.416-65.0934 124.496-55.5928Q128.576-46.092 128.576-35.2508Q128.576-24.4096 124.527-14.9088Q120.478-5.40816 113.315 1.77562Q106.152 8.95948 96.6516 13.0086Q87.1509 17.0578 76.2478 17.0578ZM65.0252-1.24322L90.6065-1.24322Q92.6642-1.24322 94.0336-2.57254Q95.403-3.9019 95.403-5.91856Q95.403-7.85737 94.0336-9.21634Q92.6642-10.5753 90.6065-10.5753L83.4076-10.5753L83.4076-40.8874Q83.4076-43.5851 82.0585-45.2141Q80.7095-46.8431 78.1957-46.8431L66.0514-46.8431Q64.0122-46.8431 62.6127-45.4841Q61.2129-44.1252 61.2129-42.1864Q61.2129-40.1498 62.6127-38.8094Q64.0122-37.4691 66.0514-37.4691L72.8928-37.4691L72.8928-10.5753L65.0252-10.5753Q63.006-10.5753 61.5963-9.21634Q60.1868-7.85737 60.1868-5.91856Q60.1868-3.9019 61.5963-2.57254Q63.006-1.24322 65.0252-1.24322ZM76.0234-56.7672Q79.4575-56.7672 81.8536-59.1855Q84.2497-61.6036 84.2497-65.0191Q84.2497-68.5089 81.8536-70.9378Q79.4575-73.3665 76.0234-73.3665Q72.6079-73.3665 70.1915-70.9378Q67.7751-68.5089 67.7751-65.0191Q67.7751-61.6036 70.1915-59.1855Q72.6079-56.7672 76.0234-56.7672Z"/>
  </g>
  <g id="Medium-L" transform="matrix(1 0 0 1 1670.89 1556)">
   <path d="M75.6279 29.1103Q88.9105 29.1103 100.546 24.0984Q112.182 19.0865 121.078 10.1681Q129.973 1.24974 135.02-10.3861Q140.067-22.022 140.067-35.2589Q140.067-48.4957 135.02-60.1317Q129.973-71.7675 121.055-80.6859Q112.137-89.6042 100.501-94.6161Q88.8648-99.628 75.5822-99.628Q62.3695-99.628 50.7215-94.6161Q39.0736-89.6042 30.213-80.6859Q21.3525-71.7675 16.3056-60.1317Q11.2588-48.4957 11.2588-35.2589Q11.2588-22.022 16.3056-10.3861Q21.3525 1.24974 30.2358 10.1681Q39.1193 19.0865 50.7673 24.0984Q62.4152 29.1103 75.6279 29.1103ZM75.6279 17.996Q64.5902 17.996 54.9404 13.8771Q45.2905 9.75817 37.9964 2.44118Q30.7024-4.8757 26.5714-14.5484Q22.4405-24.2211 22.4405-35.2589Q22.4405-46.2966 26.5486-55.9693Q30.6567-65.642 37.9507-72.959Q45.2448-80.2759 54.8946-84.3948Q64.5445-88.5136 75.5822-88.5136Q86.6657-88.5136 96.3276-84.3948Q105.989-80.2759 113.294-72.959Q120.599-65.642 124.753-55.9693Q128.907-46.2966 128.907-35.2589Q128.907-24.2211 124.788-14.5484Q120.669-4.8757 113.375 2.44118Q106.081 9.75817 96.4082 13.8771Q86.7356 17.996 75.6279 17.996ZM64.4351-1.05279L90.0905-1.05279Q91.9909-1.05279 93.2505-2.28692Q94.5099-3.52107 94.5099-5.35966Q94.5099-7.14509 93.2505-8.40054Q91.9909-9.65599 90.0905-9.65599L82.2863-9.65599L82.2863-41.647Q82.2863-44.104 81.0429-45.6002Q79.7995-47.0965 77.5089-47.0965L65.4104-47.0965Q63.5203-47.0965 62.2328-45.841Q60.9452-44.5856 60.9452-42.8002Q60.9452-40.9374 62.2328-39.6925Q63.5203-38.4476 65.4104-38.4476L72.6177-38.4476L72.6177-9.65599L64.4351-9.65599Q62.5692-9.65599 61.2695-8.40054Q59.9699-7.14509 59.9699-5.35966Q59.9699-3.52107 61.2695-2.28692Q62.5692-1.05279 64.4351-1.05279ZM75.325-57.5395Q78.6122-57.5395 80.8917-59.8406Q83.1712-62.1416 83.1712-65.4183Q83.1712-68.7371 80.8917-71.0572Q78.6122-73.3771 75.325-73.3771Q72.0482-73.3771 69.7527-71.0572Q67.4572-68.7371 67.4572-65.4183Q67.4572-62.1416 69.7527-59.8406Q72.0482-57.5395 75.325-57.5395Z"/>
  </g>
  <g id="Regular-L" transform="matrix(1 0 0 1 1374.99 1556)">
   <path d="M74.8194 28.2913Q87.9312 28.2913 99.4198 23.3438Q110.908 18.3963 119.697 9.58254Q128.485 0.768773 133.473-10.7198Q138.461-22.2083 138.461-35.2694Q138.461-48.3305 133.473-59.8191Q128.485-71.3076 119.671-80.1213Q110.858-88.935 99.3691-93.8825Q87.8806-98.83 74.7688-98.83Q61.7374-98.83 50.234-93.8825Q38.7306-88.935 29.9823-80.1213Q21.2342-71.3076 16.2465-59.8191Q11.2588-48.3305 11.2588-35.2694Q11.2588-22.2083 16.2465-10.7198Q21.2342 0.768773 30.0077 9.58254Q38.7813 18.3963 50.2847 23.3438Q61.7881 28.2913 74.8194 28.2913ZM74.8194 19.2197Q63.5254 19.2197 53.6538 15.0098Q43.7819 10.7999 36.3167 3.30929Q28.8515-4.1812 24.6267-14.0783Q20.402-23.9754 20.402-35.2694Q20.402-46.5633 24.6014-56.4604Q28.8009-66.3575 36.266-73.8482Q43.7313-81.3387 53.603-85.5486Q63.4748-89.7584 74.7688-89.7584Q86.1134-89.7584 96-85.5486Q105.887-81.3387 113.362-73.8482Q120.838-66.3575 125.088-56.4604Q129.338-46.5633 129.338-35.2694Q129.338-23.9754 125.128-14.0783Q120.918-4.1812 113.453 3.30929Q105.988 10.7999 96.0909 15.0098Q86.1939 19.2197 74.8194 19.2197ZM63.6653-0.804402L89.4173-0.804402Q91.1128-0.804402 92.2289-1.91437Q93.3449-3.02433 93.3449-4.63066Q93.3449-6.21602 92.2289-7.33645Q91.1128-8.45688 89.4173-8.45688L80.8237-8.45688L80.8237-42.6378Q80.8237-44.7807 79.7181-46.1039Q78.6126-47.427 76.613-47.427L64.5743-47.427Q62.8787-47.427 61.7374-46.3066Q60.596-45.1861 60.596-43.6008Q60.596-41.9647 61.7374-40.8443Q62.8787-39.7239 64.5743-39.7239L72.259-39.7239L72.259-8.45688L63.6653-8.45688Q61.9996-8.45688 60.8433-7.33645Q59.687-6.21602 59.687-4.63066Q59.687-3.02433 60.8433-1.91437Q61.9996-0.804402 63.6653-0.804402ZM74.414-58.5467Q77.5097-58.5467 79.637-60.6951Q81.7644-62.8434 81.7644-65.939Q81.7644-69.0348 79.637-71.2129Q77.5097-73.3909 74.414-73.3909Q71.3182-73.3909 69.1804-71.2129Q67.0426-69.0348 67.0426-65.939Q67.0426-62.8434 69.1804-60.6951Q71.3182-58.5467 74.414-58.5467Z"/>
  </g>
  <g id="Light-L" transform="matrix(1 0 0 1 1079.2 1556)">
   <path d="M73.896 27.3678Q86.8435 27.3678 98.1577 22.5024Q109.472 17.637 118.137 8.95662Q126.802 0.276277 131.708-11.0378Q136.614-22.352 136.614-35.2694Q136.614-48.1869 131.708-59.5009Q126.802-70.8151 118.122-79.4954Q109.442-88.1757 98.1275-93.0411Q86.8134-97.9065 73.8658-97.9065Q60.9986-97.9065 49.6594-93.0411Q38.3202-88.1757 29.695-79.4954Q21.07-70.8151 16.1644-59.5009Q11.2588-48.1869 11.2588-35.2694Q11.2588-22.352 16.1644-11.0378Q21.07 0.276277 29.7101 8.95662Q38.3503 17.637 49.6896 22.5024Q61.0288 27.3678 73.896 27.3678ZM73.896 20.4716Q62.3557 20.4716 52.248 16.1591Q42.1402 11.8466 34.4902 4.18148Q26.8404-3.48344 22.5027-13.6063Q18.1651-23.7291 18.1651-35.2694Q18.1651-46.8096 22.4877-56.9324Q26.8102-67.0553 34.4601-74.7204Q42.11-82.3853 52.2178-86.6978Q62.3256-91.0103 73.8658-91.0103Q85.4362-91.0103 95.5691-86.6978Q105.702-82.3853 113.342-74.7204Q120.982-67.0553 125.334-56.9324Q129.687-46.8096 129.687-35.2694Q129.687-23.7291 125.375-13.6063Q121.062-3.48344 113.412 4.18148Q105.762 11.8466 95.6394 16.1591Q85.5166 20.4716 73.896 20.4716ZM62.5366-1.05069L88.4118-1.05069Q89.7789-1.05069 90.6385-1.95543Q91.4979-2.86017 91.4979-4.07655Q91.4979-5.31307 90.6385-6.20776Q89.7789-7.10245 88.4118-7.10245L78.7715-7.10245L78.7715-44.1154Q78.7715-45.6837 77.9019-46.699Q77.0324-47.7143 75.4843-47.7143L63.2403-47.7143Q61.8731-47.7143 60.9986-46.8196Q60.124-45.9249 60.124-44.6885Q60.124-43.4218 60.9986-42.5271Q61.8731-41.6324 63.2403-41.6324L72.1769-41.6324L72.1769-7.10245L62.5366-7.10245Q61.2197-7.10245 60.32-6.20776Q59.4202-5.31307 59.4202-4.07655Q59.4202-2.86017 60.32-1.95543Q61.2197-1.05069 62.5366-1.05069ZM73.6547-59.737Q76.2783-59.737 78.0979-61.5364Q79.9174-63.3359 79.9174-65.9596Q79.9174-68.5833 78.0979-70.4331Q76.2783-72.2828 73.6547-72.2828Q71.0309-72.2828 69.2214-70.4331Q67.412-68.5833 67.412-65.9596Q67.412-63.3359 69.2214-61.5364Q71.0309-59.737 73.6547-59.737Z"/>
  </g>
  <g id="Thin-L" transform="matrix(1 0 0 1 783.716 1556)">
   <path d="M72.6746 26.1464Q85.405 26.1464 96.4885 21.3895Q107.572 16.6327 116.074 8.12879Q124.577-0.375088 129.374-11.4585Q134.171-22.542 134.171-35.2694Q134.171-47.9969 129.374-59.0802Q124.577-70.1636 116.073-78.6676Q107.569-87.1714 96.4854-91.9283Q85.402-96.6851 72.6716-96.6851Q60.0215-96.6851 48.8994-91.9283Q37.7773-87.1714 29.315-78.6676Q20.8529-70.1636 16.0558-59.0802Q11.2588-47.9969 11.2588-35.2694Q11.2588-22.542 16.0558-11.4585Q20.8529-0.375088 29.3165 8.12879Q37.7803 16.6327 48.9024 21.3895Q60.0246 26.1464 72.6746 26.1464ZM72.6746 22.1272Q60.8086 22.1272 50.3888 17.679Q39.9688 13.2308 32.0746 5.33501Q24.1805-2.56059 19.6935-12.9821Q15.2066-23.4034 15.2066-35.2694Q15.2066-47.1354 19.692-57.5567Q24.1775-67.9781 32.0716-75.8739Q39.9658-83.7695 50.3858-88.2178Q60.8056-92.6659 72.6716-92.6659Q84.5404-92.6659 94.9991-88.2178Q105.458-83.7695 113.315-75.8739Q121.172-67.9781 125.66-57.5567Q130.149-47.1354 130.149-35.2694Q130.149-23.4034 125.7-12.9821Q121.252-2.56059 113.358 5.33501Q105.464 13.2308 95.0423 17.679Q84.621 22.1272 72.6746 22.1272ZM61.0439-1.37643L87.0818-1.37643Q88.0147-1.37643 88.535-2.00974Q89.0551-2.64304 89.0551-3.3437Q89.0551-4.11884 88.535-4.71498Q88.0147-5.31112 87.0818-5.31112L76.0573-5.31112L76.0573-46.0697Q76.0573-46.8779 75.4999-47.4861Q74.9424-48.0943 73.9914-48.0943L61.4761-48.0943Q60.5432-48.0943 60.0215-47.4982Q59.4997-46.902 59.4997-46.127Q59.4997-45.3489 60.0215-44.7527Q60.5432-44.1566 61.4761-44.1566L72.0683-44.1566L72.0683-5.31112L61.0439-5.31112Q60.1883-5.31112 59.6279-4.71498Q59.0674-4.11884 59.0674-3.3437Q59.0674-2.64304 59.6279-2.00974Q60.1883-1.37643 61.0439-1.37643ZM72.6505-61.3113Q74.6498-61.3113 76.0623-62.6492Q77.4747-63.9873 77.4747-65.9867Q77.4747-67.9862 76.0623-69.4017Q74.6498-70.8171 72.6505-70.8171Q70.6509-70.8171 69.2757-69.4017Q67.9006-67.9862 67.9006-65.9867Q67.9006-63.9873 69.2757-62.6492Q70.6509-61.3113 72.6505-61.3113Z"/>
  </g>
  <g id="Ultralight-L" transform="matrix(1 0 0 1 487.632 1556)">
   <path d="M72.049 25.5208Q84.6682 25.5208 95.6335 20.8196Q106.599 16.1183 115.018 7.70478Q123.437-0.708714 128.178-11.674Q132.919-22.6393 132.919-35.2694Q132.919-47.8996 128.178-58.8647Q123.437-69.83 115.023-78.2436Q106.609-86.657 95.6444-91.3584Q84.6791-96.0595 72.0599-96.0595Q59.5211-96.0595 48.5102-91.3584Q37.4993-86.657 29.1204-78.2436Q20.7417-69.83 16.0002-58.8647Q11.2588-47.8996 11.2588-35.2694Q11.2588-22.6393 16.0002-11.674Q20.7417-0.708714 29.115 7.70478Q37.4884 16.1183 48.4993 20.8196Q59.5102 25.5208 72.049 25.5208ZM72.049 22.9752Q60.0162 22.9752 49.4365 18.4575Q38.8567 13.9398 30.8373 5.92585Q22.8181-2.08791 18.2547-12.6623Q13.6913-23.2365 13.6913-35.2694Q13.6913-47.3022 18.2601-57.8764Q22.829-68.4508 30.8482-76.4647Q38.8676-84.4785 49.4474-88.9963Q60.0271-93.5139 72.0599-93.5139Q84.0817-93.5139 94.7071-88.9963Q105.333-84.4785 113.301-76.4647Q121.269-68.4508 125.827-57.8764Q130.385-47.3022 130.385-35.2694Q130.385-23.2365 125.867-12.6623Q121.349-2.08791 113.33 5.92585Q105.311 13.9398 94.7364 18.4575Q84.1622 22.9752 72.049 22.9752ZM60.2793-1.54327L86.4006-1.54327Q87.111-1.54327 87.4575-2.03755Q87.8039-2.53183 87.8039-2.96833Q87.8039-3.50717 87.4575-3.95038Q87.111-4.3936 86.4006-4.3936L74.6671-4.3936L74.6671-47.0707Q74.6671-47.4896 74.2695-47.8893Q73.8719-48.2889 73.2268-48.2889L60.5724-48.2889Q59.862-48.2889 59.5211-47.8457Q59.18-47.4025 59.18-46.8639Q59.18-46.3359 59.5211-45.8927Q59.862-45.4495 60.5724-45.4495L72.0127-45.4495L72.0127-4.3936L60.2793-4.3936Q59.66-4.3936 59.2734-3.95038Q58.8866-3.50717 58.8866-2.96833Q58.8866-2.53183 59.2734-2.03755Q59.66-1.54327 60.2793-1.54327ZM72.1361-62.1176Q73.8157-62.1176 75.0196-63.2192Q76.2235-64.321 76.2235-66.0006Q76.2235-67.6804 75.0196-68.8734Q73.8157-70.0664 72.1361-70.0664Q70.4563-70.0664 69.3035-68.8734Q68.1508-67.6804 68.1508-66.0006Q68.1508-64.321 69.3035-63.2192Q70.4563-62.1176 72.1361-62.1176Z"/>
  </g>
  <g id="Black-M" transform="matrix(1 0 0 1 2871.35 1126)">
   <path d="M62.0423 18.1163Q73.0725 18.1163 82.714 13.9615Q92.3555 9.80668 99.704 2.45545Q107.052-4.89575 111.21-14.5373Q115.367-24.1788 115.367-35.2034Q115.367-46.2281 111.21-55.8696Q107.052-65.511 99.7012-72.8623Q92.35-80.2135 82.7085-84.3683Q73.067-88.5231 62.0368-88.5231Q51.0119-88.5231 41.3705-84.3683Q31.7292-80.2135 24.3833-72.8623Q17.0375-65.511 12.88-55.8696Q8.72266-46.2281 8.72266-35.2034Q8.72266-24.1788 12.88-14.5373Q17.0375-4.89575 24.386 2.45545Q31.7347 9.80668 41.376 13.9615Q51.0174 18.1163 62.0423 18.1163ZM62.0423 0.734403Q54.6003 0.734403 48.0771-2.06788Q41.554-4.87023 36.6371-9.7898Q31.7201-14.7095 28.9179-21.2354Q26.1159-27.7614 26.1159-35.2034Q26.1159-42.6455 28.9152-49.1714Q31.7146-55.6973 36.6315-60.617Q41.5485-65.5366 48.0716-68.339Q54.5948-71.1412 62.0368-71.1412Q69.4843-71.1412 76.0075-68.339Q82.5304-65.5366 87.4503-60.617Q92.3701-55.6973 95.175-49.1714Q97.9799-42.6455 97.9799-35.2034Q97.9799-27.7614 95.1776-21.2354Q92.3753-14.7095 87.4584-9.7898Q82.5415-4.87023 76.0156-2.06788Q69.4896 0.734403 62.0423 0.734403ZM53.1204-9.99184L72.5888-9.99184Q74.904-9.99184 76.4601-11.4563Q78.0163-12.9208 78.0163-15.294Q78.0163-17.49 76.4601-19.0145Q74.904-20.539 72.5888-20.539L69.8622-20.539L69.8622-36.091Q69.8622-39.2612 68.3375-41.1219Q66.8129-42.9824 63.8366-42.9824L54.1151-42.9824Q51.8571-42.9824 50.2697-41.4579Q48.6822-39.9334 48.6822-37.7373Q48.6822-35.3645 50.2697-33.897Q51.8571-32.4297 54.1151-32.4297L57.9025-32.4297L57.9025-20.539L53.1204-20.539Q50.862-20.539 49.2747-19.0145Q47.6875-17.49 47.6875-15.294Q47.6875-12.9208 49.2747-11.4563Q50.862-9.99184 53.1204-9.99184ZM62.3408-48.2292Q65.6187-48.2292 67.9882-50.6045Q70.3577-52.9798 70.3577-56.2005Q70.3577-59.6497 67.9882-61.9962Q65.6187-64.3426 62.3408-64.3426Q59.12-64.3426 56.7191-61.9962Q54.3182-59.6497 54.3182-56.2005Q54.3182-52.9798 56.7191-50.6045Q59.12-48.2292 62.3408-48.2292Z"/>
  </g>
  <g id="Heavy-M" transform="matrix(1 0 0 1 2575.47 1126)">
   <path d="M61.2044 17.2649Q72.0509 17.2649 81.541 13.175Q91.0312 9.08512 98.2688 1.83935Q105.506-5.40642 109.606-14.8966Q113.705-24.3867 113.705-35.2169Q113.705-46.0471 109.606-55.5373Q105.506-65.0273 98.2607-72.2731Q91.0149-79.5189 81.5248-83.6088Q72.0347-87.6987 61.1882-87.6987Q50.3604-87.6987 40.8691-83.6088Q31.3778-79.5189 24.1494-72.2731Q16.9211-65.0273 12.8219-55.5373Q8.72266-46.0471 8.72266-35.2169Q8.72266-24.3867 12.8219-14.8966Q16.9211-5.40642 24.1575 1.83935Q31.394 9.08512 40.8853 13.175Q50.3767 17.2649 61.2044 17.2649ZM61.2044 2.03399Q53.4869 2.03399 46.73-0.862889Q39.9731-3.75981 34.8765-8.86449Q29.7798-13.9692 26.8817-20.7342Q23.9836-27.4993 23.9836-35.2169Q23.9836-42.9345 26.8736-49.6995Q29.7636-56.4645 34.8602-61.5693Q39.9568-66.674 46.7137-69.5709Q53.4706-72.4677 61.1882-72.4677Q68.922-72.4677 75.6802-69.5709Q82.4383-66.674 87.5419-61.5693Q92.6454-56.4645 95.5515-49.6995Q98.4578-42.9345 98.4578-35.2169Q98.4578-27.4993 95.5609-20.7342Q92.6641-13.9692 87.5674-8.86449Q82.4708-3.75981 75.7058-0.862889Q68.9407 2.03399 61.2044 2.03399ZM52.3763-9.62058L71.9421-9.62058Q74.065-9.62058 75.4925-10.9699Q76.92-12.3194 76.92-14.4786Q76.92-16.4932 75.4925-17.8931Q74.065-19.2931 71.9421-19.2931L68.4284-19.2931L68.4284-37.0436Q68.4284-39.9347 67.0297-41.6395Q65.631-43.3443 62.9308-43.3443L53.33-43.3443Q51.2507-43.3443 49.7934-41.9443Q48.336-40.5444 48.336-38.5298Q48.336-36.3681 49.7934-35.0118Q51.2507-33.6556 53.33-33.6556L57.4603-33.6556L57.4603-19.2931L52.3763-19.2931Q50.2994-19.2931 48.8408-17.8931Q47.3823-16.4932 47.3823-14.4786Q47.3823-12.3194 48.8408-10.9699Q50.2994-9.62058 52.3763-9.62058ZM61.3363-49.2645Q64.4701-49.2645 66.7107-51.519Q68.9514-53.7734 68.9514-56.8635Q68.9514-60.1282 66.7107-62.3633Q64.4701-64.5984 61.3363-64.5984Q58.2461-64.5984 55.9767-62.3633Q53.7074-60.1282 53.7074-56.8635Q53.7074-53.7734 55.9767-51.519Q58.2461-49.2645 61.3363-49.2645Z"/>
  </g>
  <g id="Bold-M" transform="matrix(1 0 0 1 2279.69 1126)">
   <path d="M60.2671 16.3126Q70.9081 16.3126 80.2289 12.2953Q89.5497 8.27795 96.6634 1.15014Q103.777-5.97767 107.811-15.2985Q111.845-24.6192 111.845-35.232Q111.845-45.8447 107.811-55.1655Q103.777-64.4863 96.6492-71.6141Q89.5215-78.7419 80.2007-82.7592Q70.8799-86.7765 60.2389-86.7765Q49.6317-86.7765 40.3082-82.7592Q30.9847-78.7419 23.8878-71.6141Q16.791-64.4863 12.7568-55.1655Q8.72266-45.8447 8.72266-35.232Q8.72266-24.6192 12.7568-15.2985Q16.791-5.97767 23.9019 1.15014Q31.0129 8.27795 40.3364 12.2953Q49.6599 16.3126 60.2671 16.3126ZM60.2671 3.48777Q52.2413 3.48777 45.223 0.485069Q38.2046-2.51766 32.907-7.8294Q27.6093-13.1411 24.6038-20.1736Q21.5984-27.2062 21.5984-35.232Q21.5984-43.2578 24.5897-50.2903Q27.5811-57.3227 32.8787-62.6345Q38.1764-67.9463 45.1947-70.949Q52.2131-73.9517 60.2389-73.9517Q68.293-73.9517 75.3141-70.949Q82.3353-67.9463 87.6443-62.6345Q92.9533-57.3227 95.9728-50.2903Q98.9925-43.2578 98.9925-35.232Q98.9925-27.2062 95.9897-20.1736Q92.987-13.1411 87.6894-7.8294Q82.3918-2.51766 75.3592 0.485069Q68.3267 3.48777 60.2671 3.48777ZM51.5439-9.20527L71.2186-9.20527Q73.1265-9.20527 74.41-10.4259Q75.6935-11.6466 75.6935-13.5666Q75.6935-15.3781 74.41-16.6387Q73.1265-17.8993 71.2186-17.8993L66.8246-17.8993L66.8246-38.1091Q66.8246-40.688 65.5667-42.2186Q64.3089-43.7491 61.9175-43.7491L52.4518-43.7491Q50.5724-43.7491 49.2606-42.4885Q47.9487-41.2279 47.9487-39.4164Q47.9487-37.4909 49.2606-36.2589Q50.5724-35.0269 52.4518-35.0269L56.9657-35.0269L56.9657-17.8993L51.5439-17.8993Q49.67-17.8993 48.3554-16.6387Q47.0408-15.3781 47.0408-13.5666Q47.0408-11.6466 48.3554-10.4259Q49.67-9.20527 51.5439-9.20527ZM60.2126-50.4227Q63.1852-50.4227 65.2817-52.542Q67.3782-54.6612 67.3782-57.6052Q67.3782-60.6635 65.2817-62.774Q63.1852-64.8845 60.2126-64.8845Q57.2685-64.8845 55.1463-62.774Q53.0242-60.6635 53.0242-57.6052Q53.0242-54.6612 55.1463-52.542Q57.2685-50.4227 60.2126-50.4227Z"/>
  </g>
  <g id="Semibold-M" transform="matrix(1 0 0 1 1983.62 1126)">
   <path d="M59.621 15.656Q70.1203 15.656 79.3244 11.6887Q88.5284 7.72149 95.5566 0.675012Q102.585-6.37149 106.574-15.5755Q110.564-24.7796 110.564-35.2424Q110.564-45.7052 106.574-54.9092Q102.585-64.1132 95.5383-71.1597Q88.4919-78.2062 79.2879-82.1734Q70.0838-86.1407 59.5845-86.1407Q49.1293-86.1407 39.9215-82.1734Q30.7137-78.2062 23.7074-71.1597Q16.7013-64.1132 12.712-54.9092Q8.72266-45.7052 8.72266-35.2424Q8.72266-24.7796 12.712-15.5755Q16.7013-6.37149 23.7257 0.675012Q30.7502 7.72149 39.958 11.6887Q49.1658 15.656 59.621 15.656ZM59.621 4.48999Q51.3827 4.48999 44.1841 1.41434Q36.9854-1.66132 31.5492-7.11582Q26.113-12.5703 23.0335-19.7871Q19.9541-27.0041 19.9541-35.2424Q19.9541-43.4806 23.0153-50.6975Q26.0765-57.9144 31.5127-63.3689Q36.9489-68.8234 44.1475-71.899Q51.3462-74.9747 59.5845-74.9747Q67.8593-74.9747 75.0618-71.899Q82.2642-68.8234 87.7149-63.3689Q93.1656-57.9144 96.2633-50.6975Q99.361-43.4806 99.361-35.2424Q99.361-27.0041 96.2853-19.7871Q93.2097-12.5703 87.7735-7.11582Q82.3373-1.66132 75.1203 1.41434Q67.9035 4.48999 59.621 4.48999ZM50.97-8.91896L70.7198-8.91896Q72.4795-8.91896 73.6638-10.0509Q74.848-11.1828 74.848-12.9378Q74.848-14.6094 73.6638-15.7739Q72.4795-16.9384 70.7198-16.9384L65.7189-16.9384L65.7189-38.8437Q65.7189-41.2074 64.5582-42.6178Q63.3975-44.0282 61.219-44.0282L51.8464-44.0282Q50.1048-44.0282 48.8933-42.8636Q47.6817-41.6991 47.6817-40.0276Q47.6817-38.2649 48.8933-37.1186Q50.1048-35.9722 51.8464-35.9722L56.6247-35.9722L56.6247-16.9384L50.97-16.9384Q49.2362-16.9384 48.0207-15.7739Q46.8054-14.6094 46.8054-12.9378Q46.8054-11.1828 48.0207-10.0509Q49.2362-8.91896 50.97-8.91896ZM59.4379-51.2211Q62.2994-51.2211 64.2966-53.2472Q66.2937-55.2732 66.2937-58.1165Q66.2937-61.0325 64.2966-63.0572Q62.2994-65.0817 59.4379-65.0817Q56.5945-65.0817 54.5739-63.0572Q52.5532-61.0325 52.5532-58.1165Q52.5532-55.2732 54.5739-53.2472Q56.5945-51.2211 59.4379-51.2211Z"/>
  </g>
  <g id="Medium-M" transform="matrix(1 0 0 1 1687.4 1126)">
   <path d="M59.131 15.1582Q69.523 15.1582 78.6385 11.2289Q87.754 7.29956 94.7175 0.314747Q101.681-6.6701 105.636-15.7856Q109.592-24.9011 109.592-35.2502Q109.592-45.5993 105.636-54.7149Q101.681-63.8304 94.696-70.8152Q87.7112-77.8 78.5957-81.7293Q69.4802-85.6586 59.0883-85.6586Q48.7484-85.6586 39.6283-81.7293Q30.5082-77.8 23.5707-70.8152Q16.6333-63.8304 12.678-54.7149Q8.72266-45.5993 8.72266-35.2502Q8.72266-24.9011 12.678-15.7856Q16.6333-6.6701 23.5921 0.314747Q30.5509 7.29956 39.671 11.2289Q48.7912 15.1582 59.131 15.1582ZM59.131 5.24992Q50.7316 5.24992 43.3964 2.11896Q36.061-1.01202 30.5197-6.57475Q24.9784-12.1374 21.8428-19.4941Q18.7073-26.8508 18.7073-35.2502Q18.7073-43.6496 21.8214-51.0064Q24.9357-58.363 30.4769-63.9258Q36.0182-69.4884 43.3535-72.6194Q50.6889-75.7503 59.0883-75.7503Q67.5305-75.7503 74.8704-72.6194Q82.2103-69.4884 87.7685-63.9258Q93.3265-58.363 96.4835-51.0064Q99.6405-43.6496 99.6405-35.2502Q99.6405-26.8508 96.5095-19.4941Q93.3785-12.1374 87.8372-6.57475Q82.2959-1.01202 74.9392 2.11896Q67.5825 5.24992 59.131 5.24992ZM50.5349-8.70186L70.3417-8.70186Q71.9889-8.70186 73.098-9.7665Q74.2069-10.8312 74.2069-12.461Q74.2069-14.0265 73.098-15.1182Q71.9889-16.2099 70.3417-16.2099L64.8805-16.2099L64.8805-39.4006Q64.8805-41.6012 63.7934-42.9205Q62.7064-44.2398 60.6894-44.2398L51.3873-44.2398Q49.7503-44.2398 48.6148-43.1481Q47.4793-42.0564 47.4793-40.491Q47.4793-38.8518 48.6148-37.7704Q49.7503-36.689 51.3873-36.689L56.3661-36.689L56.3661-16.2099L50.5349-16.2099Q48.9072-16.2099 47.767-15.1182Q46.6269-14.0265 46.6269-12.461Q46.6269-10.8312 47.767-9.7665Q48.9072-8.70186 50.5349-8.70186ZM58.8505-51.8265Q61.6277-51.8265 63.5496-53.7819Q65.4714-55.7373 65.4714-58.5042Q65.4714-61.3123 63.5496-63.2718Q61.6277-65.2313 58.8505-65.2313Q56.0835-65.2313 54.1398-63.2718Q52.1961-61.3123 52.1961-58.5042Q52.1961-55.7373 54.1398-53.7819Q56.0835-51.8265 58.8505-51.8265Z"/>
  </g>
  <g id="Regular-M" transform="matrix(1 0 0 1 1391.32 1126)">
   <path d="M58.492 14.5088Q68.7438 14.5088 77.7439 10.629Q86.7439 6.74922 93.6229-0.155165Q100.502-7.05959 104.413-16.0596Q108.324-25.0597 108.324-35.2605Q108.324-45.4613 104.413-54.4615Q100.502-63.4615 93.5973-70.3658Q86.693-77.2703 77.6929-81.15Q68.6929-85.0298 58.441-85.0298Q48.2516-85.0298 39.2459-81.15Q30.2401-77.2703 23.3923-70.3658Q16.5446-63.4615 12.6336-54.4615Q8.72266-45.4613 8.72266-35.2605Q8.72266-25.0597 12.6336-16.0596Q16.5446-7.05959 23.4178-0.155165Q30.2911 6.74922 39.2968 10.629Q48.3025 14.5088 58.492 14.5088ZM58.492 6.24113Q49.8824 6.24113 42.3689 3.03802Q34.8552-0.165092 29.1769-5.86901Q23.4985-11.5728 20.2897-19.1118Q17.081-26.6509 17.081-35.2605Q17.081-43.8701 20.2643-51.4092Q23.4476-58.9482 29.1259-64.6521Q34.8043-70.3559 42.3178-73.559Q49.8315-76.7621 58.441-76.7621Q67.1016-76.7621 74.6208-73.559Q82.1401-70.3559 87.8383-64.6521Q93.5365-58.9482 96.7707-51.4092Q100.005-43.8701 100.005-35.2605Q100.005-26.6509 96.8018-19.1118Q93.5987-11.5728 87.9204-5.86901Q82.242-0.165092 74.7029 3.03802Q67.1639 6.24113 58.492 6.24113ZM49.9674-8.4187L69.8484-8.4187Q71.349-8.4187 72.3599-9.39558Q73.3707-10.3725 73.3707-11.8392Q73.3707-13.2662 72.3599-14.2629Q71.349-15.2596 69.8484-15.2596L63.787-15.2596L63.787-40.1271Q63.787-42.1148 62.7959-43.3153Q61.8049-44.5158 59.9985-44.5158L50.7886-44.5158Q49.2878-44.5158 48.2516-43.5191Q47.2152-42.5224 47.2152-41.0954Q47.2152-39.6174 48.2516-38.6207Q49.2878-37.624 50.7886-37.624L56.0288-37.624L56.0288-15.2596L49.9674-15.2596Q48.4781-15.2596 47.436-14.2629Q46.3941-13.2662 46.3941-11.8392Q46.3941-10.3725 47.436-9.39558Q48.4781-8.4187 49.9674-8.4187ZM58.0843-52.6161Q60.7517-52.6161 62.5752-54.4794Q64.3988-56.3426 64.3988-59.0099Q64.3988-61.6773 62.5752-63.5519Q60.7517-65.4264 58.0843-65.4264Q55.417-65.4264 53.5736-63.5519Q51.7302-61.6773 51.7302-59.0099Q51.7302-56.3426 53.5736-54.4794Q55.417-52.6161 58.0843-52.6161Z"/>
  </g>
  <g id="Light-M" transform="matrix(1 0 0 1 1095.44 1126)">
   <path d="M57.664 13.6809Q67.7687 13.6809 76.6123 9.87467Q85.4559 6.06845 92.2245-0.716336Q98.993-7.50114 102.83-16.3448Q106.668-25.1885 106.668-35.2605Q106.668-45.3326 102.83-54.1762Q98.993-63.0199 92.2082-69.8047Q85.4234-76.5895 76.5798-80.3957Q67.7361-84.2019 57.6315-84.2019Q47.5892-84.2019 38.7307-80.3957Q29.8721-76.5895 23.1347-69.8047Q16.3974-63.0199 12.56-54.1762Q8.72266-45.3326 8.72266-35.2605Q8.72266-25.1885 12.56-16.3448Q16.3974-7.50114 23.151-0.716336Q29.9047 6.06845 38.7632 9.87467Q47.6218 13.6809 57.664 13.6809ZM57.664 7.36347Q48.8337 7.36347 41.1086 4.06836Q33.3833 0.773255 27.5393-5.08705Q21.6954-10.9472 18.3855-18.6887Q15.0755-26.4301 15.0755-35.2605Q15.0755-44.0909 18.3692-51.8323Q21.6629-59.5738 27.5068-65.4341Q33.3508-71.2943 41.0759-74.5894Q48.8011-77.8844 57.6315-77.8844Q66.4944-77.8844 74.2345-74.5894Q81.9745-71.2943 87.8199-65.4341Q93.6653-59.5738 96.9915-51.8323Q100.318-44.0909 100.318-35.2605Q100.318-26.4301 97.0226-18.6887Q93.7275-10.9472 87.8836-5.08705Q82.0396 0.773255 74.2981 4.06836Q66.5568 7.36347 57.664 7.36347ZM48.9555-8.63951L68.9468-8.63951Q70.1531-8.63951 70.934-9.4324Q71.7148-10.2253 71.7148-11.3424Q71.7148-12.4567 70.934-13.251Q70.1531-14.0452 68.9468-14.0452L61.9471-14.0452L61.9471-41.4519Q61.9471-42.9243 61.1676-43.8489Q60.3882-44.7734 58.9865-44.7734L49.5926-44.7734Q48.3863-44.7734 47.5892-43.9791Q46.792-43.1848 46.792-42.0706Q46.792-40.9237 47.5892-40.1294Q48.3863-39.3351 49.5926-39.3351L55.9552-39.3351L55.9552-14.0452L48.9555-14.0452Q47.7789-14.0452 46.9669-13.251Q46.1549-12.4567 46.1549-11.3424Q46.1549-10.2253 46.9669-9.4324Q47.7789-8.63951 48.9555-8.63951ZM57.4036-53.6833Q59.6477-53.6833 61.1953-55.2337Q62.7429-56.7841 62.7429-59.0283Q62.7429-61.2725 61.1953-62.8527Q59.6477-64.4328 57.4036-64.4328Q55.1594-64.4328 53.6104-62.8527Q52.0614-61.2725 52.0614-59.0283Q52.0614-56.7841 53.6104-55.2337Q55.1594-53.6833 57.4036-53.6833Z"/>
  </g>
  <g id="Thin-M" transform="matrix(1 0 0 1 799.828 1126)">
   <path d="M56.569 12.5858Q66.4789 12.5858 75.1158 8.87697Q83.7525 5.16809 90.3751-1.45853Q96.9976-8.08512 100.738-16.722Q104.478-25.3588 104.478-35.2605Q104.478-45.1623 100.738-53.799Q96.9976-62.4359 90.371-69.0625Q83.7443-75.6891 75.1076-79.398Q66.4707-83.1068 56.5608-83.1068Q46.7132-83.1068 38.0493-79.398Q29.3854-75.6891 22.794-69.0625Q16.2027-62.4359 12.4627-53.799Q8.72266-45.1623 8.72266-35.2605Q8.72266-25.3588 12.4627-16.722Q16.2027-8.08512 22.7981-1.45853Q29.3937 5.16809 38.0575 8.87697Q46.7214 12.5858 56.569 12.5858ZM56.569 8.84785Q47.4466 8.84785 39.4417 5.43107Q31.4366 2.0143 25.3736-4.05285Q19.3107-10.1199 15.8669-18.129Q12.423-26.1381 12.423-35.2605Q12.423-44.3829 15.8628-52.392Q19.3025-60.4011 25.3654-66.4683Q31.4284-72.5353 39.4334-75.9521Q47.4384-79.3688 56.5608-79.3688Q65.6914-79.3688 73.7234-75.9521Q81.7555-72.5353 87.7955-66.4683Q93.8356-60.4011 97.2836-52.392Q100.731-44.3829 100.731-35.2605Q100.731-26.1381 97.3147-18.129Q93.8979-10.1199 87.8349-4.05285Q81.772 2.0143 73.7628 5.43107Q65.7537 8.84785 56.569 8.84785ZM47.6171-8.93155L67.7545-8.93155Q68.5714-8.93155 69.0481-9.48109Q69.5247-10.0306 69.5247-10.6853Q69.5247-11.386 69.0481-11.9126Q68.5714-12.4392 67.7545-12.4392L59.5136-12.4392L59.5136-43.204Q59.5136-43.995 59.014-44.5546Q58.5144-45.1141 57.6481-45.1141L48.0108-45.1141Q47.1939-45.1141 46.7132-44.5875Q46.2324-44.0608 46.2324-43.3603Q46.2324-42.6514 46.7132-42.1248Q47.1939-41.5982 48.0108-41.5982L55.8579-41.5982L55.8579-12.4392L47.6171-12.4392Q46.8542-12.4392 46.3464-11.9126Q45.8385-11.386 45.8385-10.6853Q45.8385-10.0306 46.3464-9.48109Q46.8542-8.93155 47.6171-8.93155ZM56.5032-55.0947Q58.1877-55.0947 59.3703-56.2314Q60.5529-57.3682 60.5529-59.0526Q60.5529-60.7371 59.3703-61.928Q58.1877-63.1188 56.5032-63.1188Q54.8187-63.1188 53.659-61.928Q52.4994-60.7371 52.4994-59.0526Q52.4994-57.3682 53.659-56.2314Q54.8187-55.0947 56.5032-55.0947Z"/>
  </g>
  <g id="Ultralight-M" transform="matrix(1 0 0 1 503.679 1126)">
   <path d="M56.0082 12.025Q65.8184 12.025 74.3493 8.36595Q82.8801 4.70693 89.4278-1.83868Q95.9756-8.38424 99.6658-16.9152Q103.356-25.4461 103.356-35.2605Q103.356-45.0751 99.6658-53.6058Q95.9756-62.1367 89.4299-68.6824Q82.8843-75.2279 74.3535-78.887Q65.8226-82.5459 56.0124-82.5459Q46.2645-82.5459 37.7003-78.887Q29.1362-75.2279 22.6195-68.6824Q16.103-62.1367 12.4128-53.6058Q8.72266-45.0751 8.72266-35.2605Q8.72266-25.4461 12.4128-16.9152Q16.103-8.38424 22.6174-1.83868Q29.1319 4.70693 37.6961 8.36595Q46.2603 12.025 56.0082 12.025ZM56.0082 9.60815Q46.7362 9.60815 38.5879 6.12905Q30.4395 2.64995 24.2643-3.52313Q18.0893-9.69607 14.5769-17.8424Q11.0645-25.9885 11.0645-35.2605Q11.0645-44.5325 14.579-52.6786Q18.0935-60.8249 24.2686-66.998Q30.4438-73.1709 38.5922-76.6501Q46.7404-80.1291 56.0124-80.1291Q65.28-80.1291 73.4617-76.6501Q81.6433-73.1709 87.783-66.998Q93.9228-60.8249 97.4331-52.6786Q100.943-44.5325 100.943-35.2605Q100.943-25.9885 97.4643-17.8424Q93.9851-9.69607 87.8099-3.52313Q81.6349 2.64995 73.4886 6.12905Q65.3424 9.60815 56.0082 9.60815ZM46.9316-9.08113L67.1437-9.08113Q67.7613-9.08113 68.0822-9.50603Q68.4029-9.93092 68.4029-10.3488Q68.4029-10.8376 68.0822-11.2271Q67.7613-11.6166 67.1437-11.6166L58.2673-11.6166L58.2673-44.1014Q58.2673-44.5434 57.911-44.916Q57.5547-45.2886 56.9626-45.2886L47.2007-45.2886Q46.5831-45.2886 46.2645-44.899Q45.9457-44.5095 45.9457-44.0209Q45.9457-43.5364 46.2645-43.1468Q46.5831-42.7573 47.2007-42.7573L55.8081-42.7573L55.8081-11.6166L46.9316-11.6166Q46.3806-11.6166 46.0285-11.2271Q45.6765-10.8376 45.6765-10.3488Q45.6765-9.93092 46.0285-9.50603Q46.3806-9.08113 46.9316-9.08113ZM56.0421-55.8177Q57.4398-55.8177 58.4355-56.7424Q59.4311-57.6673 59.4311-59.0651Q59.4311-60.4629 58.4355-61.4544Q57.4398-62.4458 56.0421-62.4458Q54.6442-62.4458 53.6839-61.4544Q52.7238-60.4629 52.7238-59.0651Q52.7238-57.6673 53.6839-56.7424Q54.6442-55.8177 56.0421-55.8177Z"/>
  </g>
  <g id="Black-S" transform="matrix(1 0 0 1 2884.57 696)">
   <path d="M48.8281 6.78711Q57.5195 6.78711 65.1123 3.51562Q72.7051 0.244141 78.4912-5.54199Q84.2773-11.3281 87.5488-18.9209Q90.8203-26.5137 90.8203-35.2051Q90.8203-43.8965 87.5488-51.4893Q84.2773-59.082 78.4912-64.8682Q72.7051-70.6543 65.1123-73.9258Q57.5195-77.1973 48.8281-77.1973Q40.1367-77.1973 32.5439-73.9258Q24.9512-70.6543 19.165-64.8682Q13.3789-59.082 10.1074-51.4893Q6.83594-43.8965 6.83594-35.2051Q6.83594-26.5137 10.1074-18.9209Q13.3789-11.3281 19.165-5.54199Q24.9512 0.244141 32.5439 3.51562Q40.1367 6.78711 48.8281 6.78711ZM48.8281-7.37305Q43.0664-7.37305 38.0127-9.5459Q32.959-11.7188 29.1504-15.5273Q25.3418-19.3359 23.1689-24.3896Q20.9961-29.4434 20.9961-35.2051Q20.9961-40.9668 23.1689-46.0205Q25.3418-51.0742 29.1504-54.8828Q32.959-58.6914 38.0127-60.8643Q43.0664-63.0371 48.8281-63.0371Q54.5898-63.0371 59.6436-60.8643Q64.6973-58.6914 68.5059-54.8828Q72.3145-51.0742 74.4873-46.0205Q76.6602-40.9668 76.6602-35.2051Q76.6602-29.4434 74.4873-24.3896Q72.3145-19.3359 68.5059-15.5273Q64.6973-11.7188 59.6436-9.5459Q54.5898-7.37305 48.8281-7.37305ZM41.7969-15.5762L57.0312-15.5762Q58.8867-15.5762 60.1318-16.748Q61.377-17.9199 61.377-19.8242Q61.377-21.582 60.1318-22.8027Q58.8867-24.0234 57.0312-24.0234L55.0781-24.0234L55.0781-35.6934Q55.0781-38.2324 53.8574-39.7217Q52.6367-41.2109 50.2441-41.2109L42.5781-41.2109Q40.7715-41.2109 39.502-39.9902Q38.2324-38.7695 38.2324-37.0117Q38.2324-35.1074 39.502-33.9355Q40.7715-32.7637 42.5781-32.7637L45.5078-32.7637L45.5078-24.0234L41.7969-24.0234Q39.9902-24.0234 38.7207-22.8027Q37.4512-21.582 37.4512-19.8242Q37.4512-17.9199 38.7207-16.748Q39.9902-15.5762 41.7969-15.5762ZM49.1211-45.166Q51.709-45.166 53.5889-47.0459Q55.4688-48.9258 55.4688-51.4648Q55.4688-54.1992 53.5889-56.0547Q51.709-57.9102 49.1211-57.9102Q46.582-57.9102 44.6777-56.0547Q42.7734-54.1992 42.7734-51.4648Q42.7734-48.9258 44.6777-47.0459Q46.582-45.166 49.1211-45.166Z"/>
  </g>
  <g id="Heavy-S" transform="matrix(1 0 0 1 2588.46 696)">
   <path d="M48.2173 6.16479Q56.7704 6.16479 64.2537 2.9394Q71.737-0.285984 77.4425-5.99721Q83.1479-11.7084 86.3791-19.1917Q89.6102-26.675 89.6102-35.2166Q89.6102-43.7582 86.3791-51.2415Q83.1479-58.7248 77.4367-64.436Q71.7255-70.1472 64.2422-73.3726Q56.7589-76.598 48.2058-76.598Q39.6642-76.598 32.1809-73.3726Q24.6977-70.1472 18.9979-64.436Q13.2982-58.7248 10.0671-51.2415Q6.83594-43.7582 6.83594-35.2166Q6.83594-26.675 10.0671-19.1917Q13.2982-11.7084 19.0037-5.99721Q24.7092-0.285984 32.1924 2.9394Q39.6757 6.16479 48.2173 6.16479ZM48.2173-6.40499Q42.2482-6.40499 37.0216-8.64699Q31.795-10.889 27.8539-14.8359Q23.9128-18.7827 21.6707-24.0151Q19.4288-29.2475 19.4288-35.2166Q19.4288-41.1858 21.665-46.4181Q23.9012-51.6504 27.8424-55.5973Q31.7835-59.5442 37.0101-61.7862Q42.2366-64.0282 48.2058-64.0282Q54.1865-64.0282 59.4131-61.7862Q64.6397-59.5442 68.5866-55.5973Q72.5335-51.6504 74.7812-46.4181Q77.029-41.1858 77.029-35.2166Q77.029-29.2475 74.7869-24.0151Q72.545-18.7827 68.6038-14.8359Q64.6627-10.889 59.4304-8.64699Q54.198-6.40499 48.2173-6.40499ZM41.2898-15.2305L56.5933-15.2305Q58.322-15.2305 59.4864-16.3274Q60.651-17.4244 60.651-19.1904Q60.651-20.8329 59.4864-21.9729Q58.322-23.113 56.5933-23.113L54.087-23.113L54.087-36.3388Q54.087-38.7049 52.947-40.0962Q51.8069-41.4875 49.5987-41.4875L42.0595-41.4875Q40.3681-41.4875 39.1793-40.3475Q37.9904-39.2074 37.9904-37.5649Q37.9904-35.7989 39.1793-34.6961Q40.3681-33.5935 42.0595-33.5935L45.139-33.5935L45.139-23.113L41.2898-23.113Q39.5984-23.113 38.4095-21.9729Q37.2207-20.8329 37.2207-19.1904Q37.2207-17.4244 38.4095-16.3274Q39.5984-15.2305 41.2898-15.2305ZM48.349-45.9151Q50.8677-45.9151 52.6727-47.7316Q54.4777-49.5481 54.4777-52.0295Q54.4777-54.6602 52.6727-56.4581Q50.8677-58.2559 48.349-58.2559Q45.8675-58.2559 44.0381-56.4581Q42.2087-54.6602 42.2087-52.0295Q42.2087-49.5481 44.0381-47.7316Q45.8675-45.9151 48.349-45.9151Z"/>
  </g>
  <g id="Bold-S" transform="matrix(1 0 0 1 2292.43 696)">
   <path d="M47.5342 5.46875Q55.9326 5.46875 63.2935 2.29492Q70.6543-0.878904 76.2695-6.50635Q81.8848-12.1338 85.0708-19.4946Q88.2568-26.8555 88.2568-35.2295Q88.2568-43.6035 85.0708-50.9644Q81.8848-58.3252 76.2573-63.9527Q70.6299-69.5801 63.2691-72.7539Q55.9082-75.9278 47.5098-75.9278Q39.1358-75.9278 31.7749-72.7539Q24.4141-69.5801 18.811-63.9527Q13.208-58.3252 10.022-50.9644Q6.83594-43.6035 6.83594-35.2295Q6.83594-26.8555 10.022-19.4946Q13.208-12.1338 18.8232-6.50635Q24.4385-0.878904 31.7993 2.29492Q39.1602 5.46875 47.5342 5.46875ZM47.5342-5.32227Q41.333-5.32227 35.9131-7.6416Q30.4931-9.96096 26.4038-14.0625Q22.3145-18.1641 19.9951-23.5961Q17.6758-29.0283 17.6758-35.2295Q17.6758-41.4307 19.9829-46.8628Q22.2901-52.2949 26.3794-56.3965Q30.4687-60.4981 35.8887-62.8174Q41.3086-65.1367 47.5098-65.1367Q53.7354-65.1367 59.1553-62.8174Q64.5752-60.4981 68.6768-56.3965Q72.7783-52.2949 75.1099-46.8628Q77.4414-41.4307 77.4414-35.2295Q77.4414-29.0283 75.1221-23.5961Q72.8027-18.1641 68.7134-14.0625Q64.624-9.96096 59.1919-7.6416Q53.7598-5.32227 47.5342-5.32227ZM40.7226-14.8438L56.1035-14.8438Q57.6904-14.8438 58.7647-15.8569Q59.8389-16.8701 59.8389-18.4814Q59.8389-19.9951 58.7647-21.0449Q57.6904-22.0947 56.1035-22.0947L52.9785-22.0947L52.9785-37.0605Q52.9785-39.2334 51.9287-40.5152Q50.8789-41.7969 48.8769-41.7969L41.4795-41.7969Q39.917-41.7969 38.8184-40.7471Q37.7197-39.6972 37.7197-38.1836Q37.7197-36.5722 38.8184-35.5469Q39.917-34.5215 41.4795-34.5215L44.7265-34.5215L44.7265-22.0947L40.7226-22.0947Q39.1602-22.0947 38.0615-21.0449Q36.9629-19.9951 36.9629-18.4814Q36.9629-16.8701 38.0615-15.8569Q39.1602-14.8438 40.7226-14.8438ZM47.4853-46.7529Q49.9267-46.7529 51.648-48.4985Q53.3692-50.2441 53.3692-52.6611Q53.3692-55.1757 51.648-56.9092Q49.9267-58.6426 47.4853-58.6426Q45.0683-58.6426 43.3228-56.9092Q41.5772-55.1757 41.5772-52.6611Q41.5772-50.2441 43.3228-48.4985Q45.0683-46.7529 47.4853-46.7529Z"/>
  </g>
  <g id="Semibold-S" transform="matrix(1 0 0 1 1996.19 696)">
   <path d="M47.0632 4.98887Q55.355 4.98887 62.6314 1.85059Q69.9078-1.28769 75.4609-6.85737Q81.0139-12.4271 84.1688-19.7035Q87.3238-26.9799 87.3238-35.2384Q87.3238-43.4968 84.1688-50.7733Q81.0139-58.0497 75.4442-63.6194Q69.8745-69.1891 62.5981-72.3273Q55.3217-75.4656 47.0299-75.4656Q38.7714-75.4656 31.495-72.3273Q24.2186-69.1891 18.6821-63.6194Q13.1458-58.0497 9.99086-50.7733Q6.83594-43.4968 6.83594-35.2384Q6.83594-26.9799 9.99086-19.7035Q13.1458-12.4271 18.6988-6.85737Q24.2519-1.28769 31.5283 1.85059Q38.8047 4.98887 47.0632 4.98887ZM47.0632-4.57578Q40.702-4.57578 35.1488-6.94843Q29.5956-9.32111 25.404-13.5293Q21.2125-17.7375 18.8398-23.3073Q16.4672-28.8773 16.4672-35.2384Q16.4672-41.5995 18.8232-47.1694Q21.1792-52.7392 25.3708-56.9475Q29.5623-61.1557 35.1155-63.5283Q40.6688-65.901 47.0299-65.901Q53.4243-65.901 58.9776-63.5283Q64.5308-61.1557 68.739-56.9475Q72.9472-52.7392 75.3365-47.1694Q77.7258-41.5995 77.7258-35.2384Q77.7258-28.8773 75.3531-23.3073Q72.9805-17.7375 68.7889-13.5293Q64.5974-9.32111 59.0275-6.94843Q53.4576-4.57578 47.0632-4.57578ZM40.3316-14.5771L55.7658-14.5771Q57.2549-14.5771 58.267-15.5325Q59.279-16.488 59.279-17.9927Q59.279-19.4175 58.267-20.4051Q57.2549-21.3927 55.7658-21.3927L52.2142-21.3927L52.2142-37.5582Q52.2142-39.5978 51.2267-40.804Q50.2391-42.0101 48.3793-42.0101L41.0796-42.0101Q39.606-42.0101 38.5696-41.0225Q37.5331-40.035 37.5331-38.6102Q37.5331-37.1055 38.5696-36.1334Q39.606-35.1613 41.0796-35.1613L44.4422-35.1613L44.4422-21.3927L40.3316-21.3927Q38.858-21.3927 37.8216-20.4051Q36.7852-19.4175 36.7852-17.9927Q36.7852-16.488 37.8216-15.5325Q38.858-14.5771 40.3316-14.5771ZM46.8899-47.3305Q49.278-47.3305 50.9414-49.0273Q52.6049-50.724 52.6049-53.0966Q52.6049-55.5312 50.9414-57.2202Q49.278-58.9092 46.8899-58.9092Q44.5174-58.9092 42.8295-57.2202Q41.1417-55.5312 41.1417-53.0966Q41.1417-50.724 42.8295-49.0273Q44.5174-47.3305 46.8899-47.3305Z"/>
  </g>
  <g id="Medium-S" transform="matrix(1 0 0 1 1699.83 696)">
   <path d="M46.706 4.625Q54.917 4.625 62.1294 1.51367Q69.3418-1.59765 74.8477-7.12353Q80.3535-12.6494 83.4849-19.8618Q86.6162-27.0743 86.6162-35.2451Q86.6162-43.416 83.4849-50.6285Q80.3535-57.8408 74.8276-63.3667Q69.3018-68.8926 62.0894-72.0039Q54.877-75.1152 46.666-75.1152Q38.4951-75.1152 31.2827-72.0039Q24.0704-68.8926 18.5844-63.3667Q13.0986-57.8408 9.96728-50.6285Q6.83594-43.416 6.83594-35.2451Q6.83594-27.0743 9.96728-19.8618Q13.0986-12.6494 18.6044-7.12353Q24.1104-1.59765 31.3228 1.51367Q38.5352 4.625 46.706 4.625ZM46.706-4.00976Q40.2236-4.00976 34.5694-6.42285Q28.915-8.83594 24.646-13.125Q20.3769-17.4141 17.9639-23.0883Q15.5508-28.7627 15.5508-35.2451Q15.5508-41.7275 17.9439-47.4019Q20.3369-53.0761 24.606-57.3653Q28.875-61.6543 34.5293-64.0674Q40.1836-66.4804 46.666-66.4804Q53.1885-66.4804 58.8428-64.0674Q64.4971-61.6543 68.7862-57.3653Q73.0752-53.0761 75.5083-47.4019Q77.9414-41.7275 77.9414-35.2451Q77.9414-28.7627 75.5283-23.0883Q73.1152-17.4141 68.8462-13.125Q64.5772-8.83594 58.9028-6.42285Q53.2285-4.00976 46.706-4.00976ZM40.0351-14.375L55.5098-14.375Q56.9248-14.375 57.8897-15.2866Q58.8545-16.1982 58.8545-17.6221Q58.8545-18.9795 57.8897-19.9199Q56.9248-20.8603 55.5098-20.8603L51.6348-20.8603L51.6348-37.9355Q51.6348-39.874 50.6943-41.023Q49.7539-42.1719 48.002-42.1719L40.7764-42.1719Q39.3701-42.1719 38.3809-41.2314Q37.3916-40.291 37.3916-38.9336Q37.3916-37.5098 38.3809-36.5781Q39.3701-35.6465 40.7764-35.6465L44.2266-35.6465L44.2266-20.8603L40.0351-20.8603Q38.6289-20.8603 37.6396-19.9199Q36.6504-18.9795 36.6504-17.6221Q36.6504-16.1982 37.6396-15.2866Q38.6289-14.375 40.0351-14.375ZM46.4385-47.7685Q48.7861-47.7685 50.4057-49.4282Q52.0254-51.0879 52.0254-53.4267Q52.0254-55.8007 50.4057-57.4561Q48.7861-59.1113 46.4385-59.1113Q44.0996-59.1113 42.4556-57.4561Q40.8116-55.8007 40.8116-53.4267Q40.8116-51.0879 42.4556-49.4282Q44.0996-47.7685 46.4385-47.7685Z"/>
  </g>
  <g id="Regular-S" transform="matrix(1 0 0 1 1403.58 696)">
   <path d="M46.2402 4.15039Q54.3457 4.15039 61.4746 1.07422Q68.6035-2.00195 74.0479-7.4707Q79.4922-12.9395 82.5928-20.0684Q85.6934-27.1973 85.6934-35.2539Q85.6934-43.3105 82.5928-50.4395Q79.4922-57.5684 74.0234-63.0371Q68.5547-68.5059 61.4258-71.582Q54.2969-74.6582 46.1914-74.6582Q38.1348-74.6582 31.0059-71.582Q23.877-68.5059 18.457-63.0371Q13.0371-57.5684 9.93652-50.4395Q6.83594-43.3105 6.83594-35.2539Q6.83594-27.1973 9.93652-20.0684Q13.0371-12.9395 18.4814-7.4707Q23.9258-2.00195 31.0547 1.07422Q38.1836 4.15039 46.2402 4.15039ZM46.2402-3.27148Q39.5996-3.27148 33.8135-5.7373Q28.0273-8.20312 23.6572-12.5977Q19.2871-16.9922 16.8213-22.8027Q14.3555-28.6133 14.3555-35.2539Q14.3555-41.8945 16.7969-47.7051Q19.2383-53.5156 23.6084-57.9102Q27.9785-62.3047 33.7646-64.7705Q39.5508-67.2363 46.1914-67.2363Q52.8809-67.2363 58.667-64.7705Q64.4531-62.3047 68.8477-57.9102Q73.2422-53.5156 75.7324-47.7051Q78.2227-41.8945 78.2227-35.2539Q78.2227-28.6133 75.7568-22.8027Q73.291-16.9922 68.9209-12.5977Q64.5508-8.20312 58.7402-5.7373Q52.9297-3.27148 46.2402-3.27148ZM39.6484-14.1113L55.1758-14.1113Q56.4941-14.1113 57.3975-14.9658Q58.3008-15.8203 58.3008-17.1387Q58.3008-18.4082 57.3975-19.2871Q56.4941-20.166 55.1758-20.166L50.8789-20.166L50.8789-38.4277Q50.8789-40.2344 50-41.3086Q49.1211-42.3828 47.5098-42.3828L40.3809-42.3828Q39.0625-42.3828 38.1348-41.5039Q37.207-40.625 37.207-39.3555Q37.207-38.0371 38.1348-37.1582Q39.0625-36.2793 40.3809-36.2793L43.9453-36.2793L43.9453-20.166L39.6484-20.166Q38.3301-20.166 37.4023-19.2871Q36.4746-18.4082 36.4746-17.1387Q36.4746-15.8203 37.4023-14.9658Q38.3301-14.1113 39.6484-14.1113ZM45.8496-48.3398Q48.1445-48.3398 49.707-49.9512Q51.2695-51.5625 51.2695-53.8574Q51.2695-56.1523 49.707-57.7637Q48.1445-59.375 45.8496-59.375Q43.5547-59.375 41.9678-57.7637Q40.3809-56.1523 40.3809-53.8574Q40.3809-51.5625 41.9678-49.9512Q43.5547-48.3398 45.8496-48.3398Z"/>
  </g>
  <g id="Light-S" transform="matrix(1 0 0 1 1107.6 696)">
   <path d="M45.5078 3.41797Q53.4831 3.41797 60.4736 0.406902Q67.4642-2.60416 72.8109-7.96712Q78.1576-13.3301 81.1931-20.3207Q84.2285-27.3112 84.2285-35.2539Q84.2285-43.1966 81.1931-50.1872Q78.1576-57.1778 72.7946-62.5407Q67.4316-67.9037 60.4411-70.9147Q53.4505-73.9258 45.4753-73.9258Q37.5489-73.9258 30.5502-70.9147Q23.5515-67.9037 18.2291-62.5407Q12.9069-57.1778 9.87142-50.1872Q6.83594-43.1966 6.83594-35.2539Q6.83594-27.3112 9.87142-20.3207Q12.9069-13.3301 18.2454-7.96712Q23.584-2.60416 30.5827 0.406902Q37.5814 3.41797 45.5078 3.41797ZM45.5078-2.27864Q38.6719-2.27864 32.6986-4.82584Q26.7252-7.37304 22.2086-11.906Q17.6921-16.4388 15.1367-22.4284Q12.5814-28.418 12.5814-35.2539Q12.5814-42.0898 15.1205-48.0794Q17.6595-54.069 22.1761-58.6019Q26.6927-63.1348 32.666-65.682Q38.6393-68.2291 45.4753-68.2291Q52.3438-68.2291 58.3252-65.682Q64.3066-63.1348 68.8314-58.6019Q73.3561-54.069 75.9277-48.0794Q78.4994-42.0898 78.4994-35.2539Q78.4994-28.418 75.9521-22.4284Q73.4049-16.4388 68.8883-11.906Q64.3718-7.37304 58.3821-4.82584Q52.3926-2.27864 45.5078-2.27864ZM38.7532-14.3066L54.3783-14.3066Q55.4362-14.3066 56.1361-14.9984Q56.8359-15.6901 56.8359-16.6992Q56.8359-17.6921 56.1361-18.3919Q55.4362-19.0918 54.3783-19.0918L49.2513-19.0918L49.2513-39.5996Q49.2513-40.9505 48.5596-41.7806Q47.8678-42.6107 46.6146-42.6107L39.3229-42.6107Q38.265-42.6107 37.5489-41.9108Q36.8327-41.2109 36.8327-40.2181Q36.8327-39.1927 37.5489-38.4928Q38.265-37.793 39.3229-37.793L43.8802-37.793L43.8802-19.0918L38.7532-19.0918Q37.7116-19.0918 36.9873-18.3919Q36.263-17.6921 36.263-16.6992Q36.263-15.6901 36.9873-14.9984Q37.7116-14.3066 38.7532-14.3066ZM45.2474-49.2838Q47.1679-49.2838 48.4863-50.6185Q49.8047-51.9531 49.8047-53.8737Q49.8047-55.7942 48.4863-57.1452Q47.1679-58.4961 45.2474-58.4961Q43.3268-58.4961 42.0003-57.1452Q40.6739-55.7942 40.6739-53.8737Q40.6739-51.9531 42.0003-50.6185Q43.3268-49.2838 45.2474-49.2838Z"/>
  </g>
  <g id="Thin-S" transform="matrix(1 0 0 1 811.863 696)">
   <path d="M44.5391 2.44928Q52.3422 2.44928 59.1498-0.47568Q65.9573-3.40064 71.1749-8.62368Q76.3924-13.8467 79.3418-20.6543Q82.2911-27.4619 82.2911-35.2539Q82.2911-43.046 79.3418-49.8535Q76.3924-56.6611 71.1693-61.8842Q65.9463-67.1072 59.1388-70.0321Q52.3311-72.9571 44.5281-72.9571Q36.7739-72.9571 29.9474-70.0321Q23.1209-67.1072 17.9278-61.8842Q12.7347-56.6611 9.78531-49.8535Q6.83594-43.046 6.83594-35.2539Q6.83594-27.4619 9.78531-20.6543Q12.7347-13.8467 17.9333-8.62368Q23.1319-3.40064 29.9584-0.47568Q36.7849 2.44928 44.5391 2.44928ZM44.5391-0.965536Q37.4449-0.965536 31.2241-3.62037Q25.0031-6.2752 20.2928-10.9911Q15.5825-15.7069 12.9088-21.9333Q10.235-28.1596 10.235-35.2539Q10.235-42.3482 12.9032-48.5745Q15.5715-54.8009 20.2818-59.5168Q24.9921-64.2326 31.213-66.8875Q37.4338-69.5422 44.5281-69.5422Q51.6334-69.5422 57.8731-66.8875Q64.1129-64.2326 68.8098-59.5168Q73.5068-54.8009 76.1861-48.5745Q78.8653-42.3482 78.8653-35.2539Q78.8653-28.1596 76.2105-21.9333Q73.5556-15.7069 68.8453-10.9911Q64.135-6.2752 57.9086-3.62037Q51.6822-0.965536 44.5391-0.965536ZM37.5693-14.565L53.3235-14.565Q54.037-14.565 54.4678-15.0414Q54.8985-15.5179 54.8985-16.118Q54.8985-16.7449 54.4678-17.208Q54.037-17.6711 53.3235-17.6711L47.0987-17.6711L47.0987-41.1495Q47.0987-41.8977 46.6545-42.4049Q46.2103-42.912 45.4306-42.912L37.9237-42.912Q37.2102-42.912 36.7739-42.449Q36.3376-41.9859 36.3376-41.359Q36.3376-40.7211 36.7739-40.258Q37.2102-39.7949 37.9237-39.7949L43.7941-39.7949L43.7941-17.6711L37.5693-17.6711Q36.8936-17.6711 36.4384-17.208Q35.9831-16.7449 35.9831-16.118Q35.9831-15.5179 36.4384-15.0414Q36.8936-14.565 37.5693-14.565ZM44.4509-50.5324Q45.8763-50.5324 46.8718-51.5011Q47.8673-52.4698 47.8673-53.8952Q47.8673-55.3207 46.8718-56.3272Q45.8763-57.3337 44.4509-57.3337Q43.0255-57.3337 42.0434-56.3272Q41.0613-55.3207 41.0613-53.8952Q41.0613-52.4698 42.0434-51.5011Q43.0255-50.5324 44.4509-50.5324Z"/>
  </g>
  <g id="Ultralight-S" transform="matrix(1 0 0 1 515.649 696)">
   <path d="M44.043 1.95312Q51.7578 1.95312 58.4717-0.927734Q65.1855-3.80859 70.3369-8.95996Q75.4883-14.1113 78.3936-20.8252Q81.2988-27.5391 81.2988-35.2539Q81.2988-42.9688 78.3936-49.6826Q75.4883-56.3965 70.3369-61.5479Q65.1855-66.6992 58.4717-69.5801Q51.7578-72.4609 44.043-72.4609Q36.377-72.4609 29.6387-69.5801Q22.9004-66.6992 17.7734-61.5479Q12.6465-56.3965 9.74121-49.6826Q6.83594-42.9688 6.83594-35.2539Q6.83594-27.5391 9.74121-20.8252Q12.6465-14.1113 17.7734-8.95996Q22.9004-3.80859 29.6387-0.927734Q36.377 1.95312 44.043 1.95312ZM44.043-0.292969Q36.8164-0.292969 30.4688-3.00293Q24.1211-5.71289 19.3115-10.5225Q14.502-15.332 11.7676-21.6797Q9.0332-28.0273 9.0332-35.2539Q9.0332-42.4805 11.7676-48.8281Q14.502-55.1758 19.3115-59.9854Q24.1211-64.7949 30.4688-67.5049Q36.8164-70.2148 44.043-70.2148Q51.2695-70.2148 57.6416-67.5049Q64.0137-64.7949 68.7988-59.9854Q73.584-55.1758 76.3184-48.8281Q79.0527-42.4805 79.0527-35.2539Q79.0527-28.0273 76.3428-21.6797Q73.6328-15.332 68.8232-10.5225Q64.0137-5.71289 57.666-3.00293Q51.3184-0.292969 44.043-0.292969ZM36.9629-14.6973L52.7832-14.6973Q53.3203-14.6973 53.6133-15.0635Q53.9062-15.4297 53.9062-15.8203Q53.9062-16.2598 53.6133-16.6016Q53.3203-16.9434 52.7832-16.9434L45.9961-16.9434L45.9961-41.9434Q45.9961-42.3828 45.6787-42.7246Q45.3613-43.0664 44.8242-43.0664L37.207-43.0664Q36.6699-43.0664 36.377-42.7246Q36.084-42.3828 36.084-41.9434Q36.084-41.5039 36.377-41.1621Q36.6699-40.8203 37.207-40.8203L43.75-40.8203L43.75-16.9434L36.9629-16.9434Q36.4746-16.9434 36.1572-16.6016Q35.8398-16.2598 35.8398-15.8203Q35.8398-15.4297 36.1572-15.0635Q36.4746-14.6973 36.9629-14.6973ZM44.043-51.1719Q45.2148-51.1719 46.0449-51.9531Q46.875-52.7344 46.875-53.9062Q46.875-55.0781 46.0449-55.9082Q45.2148-56.7383 44.043-56.7383Q42.8711-56.7383 42.0654-55.9082Q41.2598-55.0781 41.2598-53.9062Q41.2598-52.7344 42.0654-51.9531Q42.8711-51.1719 44.043-51.1719Z"/>
  </g>
 </g>
</svg>
